<svg xmlns="http://www.w3.org/2000/svg" width="14" height="14" xmlns:v="https://vecta.io/nano"><path d="M12.875 14c.313 0 .578-.11.797-.328s.328-.484.328-.797V2.125c0-.312-.11-.578-.328-.797S13.188 1 12.875 1H11V.563a.54.54 0 0 0-.164-.398.54.54 0 0 0-.398-.164.54.54 0 0 0-.398.164.54.54 0 0 0-.164.398V1h-5.75V.563a.54.54 0 0 0-.164-.398A.54.54 0 0 0 3.563 0a.54.54 0 0 0-.398.164A.54.54 0 0 0 3 .563V1H1.125c-.312 0-.578.11-.797.328S0 1.813 0 2.125v10.75c0 .313.11.578.328.797s.484.328.797.328h11.75zm0-10.125H1.125v-1.75H3v.313a.54.54 0 0 0 .164.398.54.54 0 0 0 .398.164.54.54 0 0 0 .398-.164.54.54 0 0 0 .164-.398v-.312h5.75v.313a.54.54 0 0 0 .164.398.54.54 0 0 0 .398.164.54.54 0 0 0 .398-.164.54.54 0 0 0 .164-.398v-.312h1.875v1.75zm0 9H1.125V5h11.75v7.875zM4.5 8a.48.48 0 0 0 .352-.148A.48.48 0 0 0 5 7.5a.48.48 0 0 0-.148-.352A.48.48 0 0 0 4.5 7h-1a.48.48 0 0 0-.352.148A.48.48 0 0 0 3 7.5a.48.48 0 0 0 .148.352A.48.48 0 0 0 3.5 8h1zm3 0a.48.48 0 0 0 .352-.148A.48.48 0 0 0 8 7.5a.48.48 0 0 0-.148-.352A.48.48 0 0 0 7.5 7h-1a.48.48 0 0 0-.352.148A.48.48 0 0 0 6 7.5a.48.48 0 0 0 .148.352A.48.48 0 0 0 6.5 8h1zm3 0a.48.48 0 0 0 .352-.148A.48.48 0 0 0 11 7.5a.48.48 0 0 0-.148-.352A.48.48 0 0 0 10.5 7h-1a.48.48 0 0 0-.352.148A.48.48 0 0 0 9 7.5a.48.48 0 0 0 .148.352A.48.48 0 0 0 9.5 8h1zm-6 3.03a.48.48 0 0 0 .352-.148.48.48 0 0 0 .148-.352.48.48 0 0 0-.148-.352.48.48 0 0 0-.352-.148h-1a.48.48 0 0 0-.352.148.48.48 0 0 0-.148.352.48.48 0 0 0 .148.352.48.48 0 0 0 .352.148h1zm3 0a.48.48 0 0 0 .352-.148.48.48 0 0 0 .148-.352.48.48 0 0 0-.148-.352.48.48 0 0 0-.352-.148h-1a.48.48 0 0 0-.352.148.48.48 0 0 0-.148.352.48.48 0 0 0 .148.352.48.48 0 0 0 .352.148h1z" fill="#3a3a3a"/></svg>