<svg xmlns="http://www.w3.org/2000/svg" width="14" height="14" xmlns:v="https://vecta.io/nano"><path d="M11.28 7.016c.75 0 1.39-.266 1.922-.797A2.6 2.6 0 0 0 14 4.313V1.125c0-.312-.11-.578-.328-.797S13.188 0 12.875 0H1.125C.813 0 .547.11.328.328S0 .813 0 1.125v3.188a2.6 2.6 0 0 0 .797 1.906c.53.53 1.172.797 1.922.797.427 0 .828-.094 1.203-.28a2.62 2.62 0 0 0 .938-.781 2.62 2.62 0 0 0 .938.781c.375.188.776.28 1.203.28a2.64 2.64 0 0 0 1.211-.281c.37-.187.685-.443.945-.766a2.71 2.71 0 0 0 .93.766c.37.188.768.28 1.195.28zM2.71 5.89a1.53 1.53 0 0 1-1.125-.461 1.52 1.52 0 0 1-.461-1.117V1.125h3.172v3.188a1.52 1.52 0 0 1-.461 1.117 1.53 1.53 0 0 1-1.125.461zm4.29 0a1.52 1.52 0 0 1-1.117-.461 1.52 1.52 0 0 1-.461-1.117V1.125h3.156v3.36c-.042.396-.214.73-.516 1A1.54 1.54 0 0 1 7 5.891zm4.29 0a1.53 1.53 0 0 1-1.125-.461 1.52 1.52 0 0 1-.461-1.117V1.125h3.172v3.188a1.52 1.52 0 0 1-.461 1.117 1.53 1.53 0 0 1-1.125.461zm.586 8.11c.313 0 .578-.11.797-.328s.328-.484.328-.797V9c0-.156-.057-.286-.172-.39-.104-.115-.234-.172-.39-.172a.54.54 0 0 0-.398.164.54.54 0 0 0-.164.398v3.875h-9.75V9a.54.54 0 0 0-.164-.398.54.54 0 0 0-.398-.164.54.54 0 0 0-.398.164A.54.54 0 0 0 1 9v3.875c0 .313.11.578.328.797s.484.328.797.328h9.75z" fill="#3a3a3a"/></svg>