<svg xmlns="http://www.w3.org/2000/svg" width="240" height="65" xmlns:v="https://vecta.io/nano"><path d="M239.957 6.827c.028 0 .043.06.043.18 0 .326-.117.637-.35.934-.358.417-.876.634-1.552.65-.535.01-.944.123-1.228.334l-.418.394c-.074.017-.11-.094-.11-.334 0-.89.586-1.342 1.757-1.353.677-.017 1.163-.15 1.46-.403l.4-.403zm-1.808 13.5v-9.414l1.79-1.345v9.226l-1.79 1.533zm-2.857-.96h-14.236v-2.716l9.7.017c0-.07-.25-.34-.746-.814a12.94 12.94 0 0 0-1.608-1.302c-.608-.423-1.26-.634-1.953-.634-.54 0-1.373.203-2.5.608.466-.81.796-1.31.99-1.5.5-.583 1.333-.874 2.5-.874 1.223 0 2.582.68 4.077 2.04a19.67 19.67 0 0 0 1.689 1.435c.552.414 1.25.74 2.098.98v2.758zm-7.933 1.713l2.49 1.002-.913 2.03-2.44-1.028.86-2.005zm.34-16.636l-3.352 1.833v-.917l3.352-1.85v.934zm-7.958 17.912c-1.15 1.576-2.29 2.364-3.42 2.364-.853 0-1.693-.42-2.52-1.264s-1.39-1.698-1.685-2.566l.46.283c.313.17.753.37 1.322.595a4.58 4.58 0 0 0 1.749.33c1.137-.057 2.117-.46 2.938-1.208s1.233-1.28 1.233-1.593c-.01-.69-.702-1.642-2.073-2.853l1.16-2.467.938.942a3.9 3.9 0 0 1 .699.994c.12.228.213.474.28.737h.742v2.716h-.59c-.114.908-.526 1.905-1.237 3zM217.73 6.245l-3.352 1.833V7.16l3.352-1.85v.934zm-5.502 9.85c-.006.023-.01.043-.01.06a.12.12 0 0 1-.009.051V9.73l-.478-1.748 1.86-1.38.145 1.68.785.848-.657 1.422v6.707l-.01.89-.026.48c-.09.457-.923.767-2.495.93l-2.87.244c-3.457 0-5.186-.88-5.186-2.638 0-.788.173-1.522.52-2.202.574-1.057.95-1.588 1.126-1.593l.034.01v.07c0 .086-.013.224-.038.415l-.14.908-.102.74a1.35 1.35 0 0 0 .606 1.092c.387.277 1.436.415 3.147.415.466 0 1.122-.04 1.966-.12s1.395-.21 1.65-.394c.074-.04.128-.14.162-.3.006.03.01.063.01.103l.01-.214zm-2.15-3.975c0 1.353-.998 2.116-2.994 2.287-.188 0-.327-.02-.418-.06 1.336-.543 2.004-.91 2.004-1.105 0-.05-.048-.086-.145-.103s-.2-.03-.34-.034l-.397-.026c-.134-.01-.235-.04-.303-.086-.125-.086-.188-.26-.188-.523 0-.154.047-.334.14-.54s.235-.454.422-.745c.734-.777 1.223-1.165 1.467-1.165h.026l-.46.878-.307.638c.114.114.338.194.674.24l.768.12c.034.046.05.12.05.223zm1.066-10.502l-3.352 1.833v-.917l3.352-1.85v.934zm-14.036 15.916l-1.79 2.7V9.115l1.79-2.424v10.845zM186.693 7c0 .228-.18.534-.537.917a14.24 14.24 0 0 0-.23-1.413l.495-.65c.182.154.273.537.273 1.148zm6.013 9.286c0 .503-.122 1.11-.367 1.825-.336.977-.77 1.465-1.305 1.465a9.49 9.49 0 0 1-1.766-.163c-.853-.154-1.314-.39-1.382-.71l-.444-.968c-.523 1.32-.952 1.98-1.288 1.98-.876 0-1.62-.21-2.235-.634-.38-.257-.685-.92-.913-1.987-.506 1.45-.95 2.176-1.33 2.176-.375 0-.893-.226-1.552-.677-.63-.434-.947-.73-.947-.89 0-.77.3-1.535.896-2.29s1.4-1.338 2.405-1.743l-.05-.445 1.066-1.5.75 4.43c.057.228.34.428.853.6.392.126.7.188.92.188.336 0 .583-.03.742-.086l-.34-3.632 1.373-1.902.708 4.926c.41.37 1.194.557 2.354.557.045 0 .068-.06.068-.18 0-.25-.084-1.068-.252-2.45l-.337-2.493 1.638-2.116.734 6.725zm-9.74-.11c0-.354-.097-.934-.3-1.74-.506.737-.987 1.214-1.442 1.43.25.417.606.625 1.066.625.444 0 .665-.106.665-.317zm5.69-7.7c0 .343-.067.68-.2 1.015s-.27.55-.41.65-.27.15-.388.15a.98.98 0 0 1-.422-.094c-.134-.063-.254-.14-.363-.23l-.367.608c-.165.394-.498.59-.998.59-.57 0-.853-.574-.853-1.722l.004-.15.013-.133.57-.308-.06.23c0 .708.16 1.062.478 1.062.404 0 .606-.488.606-1.465 0-.05-.023-.14-.068-.266l.63-.3a2.08 2.08 0 0 0 .179.642c.102.234.198.388.286.463s.178.11.27.11c.273 0 .41-.268.41-.805 0-.417-.05-.694-.154-.83l.725-.368c.074.206.11.588.11 1.148zm-5.97-4.266l-.28.668-.41-.107-.563-.176c-.318.348-.677.684-1.075 1.007s-.844.635-1.34.938l-.367-.702c.01.006.028.01.05.01.125 0 .48-.226 1.066-.677l1.058-.9c-.682-.354-1.024-.754-1.024-1.2 0-.166.06-.346.183-.54a2.61 2.61 0 0 1 .456-.54c.182-.166.377-.304.584-.415s.39-.167.55-.167c.34 0 .573.067.695.2s.183.378.183.732c0 .394-.22.934-.657 1.62l.37.116.516.133zm-1.134-1.653c0-.21-.1-.317-.3-.317-.307 0-.46.177-.46.53 0 .263.154.497.46.702.2-.37.3-.677.3-.917zm-11.478 3.743l2.158.874-.793 1.756-2.115-.89.75-1.74zm3.53 8.986c-.006 2.496-.287 3.806-.844 3.932-.756.11-1.58.163-2.474.163h-4.4v-2.716h5.263l-2.26-1.054c-.802-.354-1.203-.817-1.203-1.388 0-.56.444-1.448 1.33-2.664.745-1.057 1.382-1.585 1.91-1.585.665 0 1.362.68 2.1 2.04.205.428.354.954.448 1.576a11.47 11.47 0 0 1 .141 1.696zm-1.305-.42c0-.36-.205-.994-.614-1.902-.46-.788-.847-1.182-1.16-1.182-.074 0-.18.027-.32.08s-.337.158-.593.313-.435.317-.537.488-.165.306-.188.403l3.386 1.9c.017-.023.026-.06.026-.11zm-2.91 9.106l-3.7 2.236v-.985l3.7-2.262v1.01zm-2.994-4.592h-8.308v-2.716h5.595c.125 0 .188-.106.188-.317 0-.154-.162-.535-.486-1.144s-.617-1.02-.88-1.238l1.518-2.202c.517.583.93 1.418 1.24 2.506s.465 1.886.465 2.394h.665v2.716zm-4.137 3.05l1.083-1.336 1.646 1.405-1.203 1.422-1.578-1.31-1.083 1.31-1.62-1.38 1.194-1.43 1.56 1.32zm-.026-17.852c0 .617-.163 1.1-.5 1.452s-.786.527-1.378.527c-.256 0-.472-.03-.648-.086s-.32-.153-.43-.287-.2-.31-.24-.53a3.89 3.89 0 0 1-.073-.818 3 3 0 0 1 .119-.857 2.24 2.24 0 0 1 .341-.702c.148-.2.32-.36.52-.48a1.25 1.25 0 0 1 .657-.18c.506 0 .903.178 1.2.535s.43.832.43 1.426zm-.86-.043c0-.634-.287-.95-.86-.95a.55.55 0 0 0-.337.111c-.1.074-.186.166-.26.274s-.132.227-.175.356-.064.25-.064.364c0 .417.25.625.75.625.2 0 .36-.014.482-.043a.65.65 0 0 0 .286-.133.46.46 0 0 0 .141-.236c.026-.097.038-.22.038-.368zm-6.082 14.87c-.75 0-1.442-.1-2.073-.33a6.07 6.07 0 0 1-1.74-.947c-.267.834-.898 1.25-1.894 1.25h-1.288v-2.716c2.28 0 3.46-.1 3.54-.3l.76-1.388c.45-.96.934-1.702 1.454-2.227s1.076-.788 1.668-.788c.38 0 .702.174.964.523s.55 1.076.86 2.184c.233.84.375 1.505.426 1.996h.63v2.716h-1.382l-.47-.214c-.392.16-.88.24-1.46.24zm.896-2.733c0-.37-.14-.835-.422-1.392s-.68-.835-1.198-.835c-.13 0-.323.063-.576.188s-.5.328-.772.608-.392.497-.392.65c0 .074.05.16.154.257s.364.223.785.377a5.5 5.5 0 0 0 1.318.304l.84.073c.176 0 .264-.077.264-.23zM154.6 4.446l-3.352 1.833v-.917l3.352-1.85v.934zm-5.792 14.923h-2.815c-.62 0-1.046-.126-1.28-.377s-.35-.625-.35-1.122V8.3l1.79-1.6v9.33c0 .417.193.625.58.625h2.073v2.724zm-12.527-1.833l-1.79 2.7V9.115l1.79-2.424v10.845zM135.035.934l-3.352 1.833V1.85L135.035 0v.934zm-3.2 15.094l-1.305 2.604-6.96.737h-2.38v-2.716h3.14c-.8-1.165-1.186-1.953-1.186-2.364 0-.69.452-1.472 1.356-2.343s1.75-1.306 2.533-1.306c.643 0 1.29.343 1.94 1.028s1.022 1.373 1.113 2.064c-.08-.097-.33-.287-.75-.57s-.88-.424-1.373-.424a6.26 6.26 0 0 0-2.73.617l-.01.05c0 .12.144.393.43.818s.556.747.806.964l1.007.767c.42.3.702.473.844.518l3.523-.445zM126.36 4.566c0 .617-.163 1.1-.5 1.452s-.786.527-1.378.527c-.256 0-.472-.03-.648-.086s-.32-.153-.43-.287-.2-.31-.24-.53a3.89 3.89 0 0 1-.073-.818 3 3 0 0 1 .119-.857 2.24 2.24 0 0 1 .341-.702c.148-.2.32-.36.52-.48a1.25 1.25 0 0 1 .657-.18c.506 0 .903.178 1.2.535s.43.832.43 1.426zm-.86-.043c0-.634-.287-.95-.86-.95a.55.55 0 0 0-.337.111c-.1.074-.186.166-.26.274s-.132.227-.175.356-.064.25-.064.364c0 .417.25.625.75.625.2 0 .36-.014.482-.043a.65.65 0 0 0 .286-.133.46.46 0 0 0 .141-.236c.026-.097.038-.22.038-.368zm-7.173 14.845h-9.937l.034-2.716c1.79 0 2.687-.146 2.687-.437V9.963l-.392-1.465 1.766-1.722.136 1.68.972.848-.887 1.422v4.866c.068-.16.56-.55 1.476-1.174 1.74-1.314 2.97-1.973 3.693-1.98.57 0 1.03.07 1.382.206 1.308.53 1.953 1.6 1.936 3.238a6.35 6.35 0 0 1-.119.771h.63v2.716h-1.373l-.4-.42c-.557.28-1.092.42-1.604.42zm1.655-3.084c0-.457-.412-.842-1.237-1.156-.8-.286-1.456-.428-1.996-.428-.307 0-.836.177-1.587.53-1.643.897-2.465 1.462-2.465 1.696 0 .114 1.277.17 3.83.17 2.303 0 3.455-.27 3.455-.814zM112.594 1.62l-3.352 1.833v-.917l3.352-1.85v.934zm-3.66 17.75h-8.308v-2.716h5.595c.125 0 .188-.106.188-.317 0-.154-.162-.535-.486-1.144s-.617-1.02-.88-1.238l1.518-2.202c.517.583.93 1.418 1.24 2.506s.465 1.886.465 2.394h.665v2.716zm-4.137 3.05l1.083-1.336 1.646 1.405-1.203 1.422-1.578-1.31-1.083 1.31-1.62-1.38 1.194-1.43 1.56 1.32zm-.026-17.852c0 .617-.163 1.1-.5 1.452s-.786.527-1.378.527c-.256 0-.472-.03-.648-.086s-.32-.153-.43-.287-.2-.31-.24-.53a3.89 3.89 0 0 1-.073-.818 3 3 0 0 1 .119-.857 2.24 2.24 0 0 1 .341-.702c.148-.2.32-.36.52-.48a1.25 1.25 0 0 1 .657-.18c.506 0 .903.178 1.2.535s.43.832.43 1.426zm-.86-.043c0-.634-.287-.95-.86-.95a.55.55 0 0 0-.337.111c-.1.074-.186.166-.26.274s-.132.227-.175.356-.064.25-.064.364c0 .417.25.625.75.625.2 0 .36-.014.482-.043a.65.65 0 0 0 .286-.133.46.46 0 0 0 .141-.236c.026-.097.038-.22.038-.368zm-2.772 14.845h-.955c-1.217.32-2.725.58-4.525.78l-4.047.3c-1.467 0-2.646-.296-3.536-.887s-1.335-1.452-1.335-2.583c0-1.245.61-2.558 1.834-3.94-.324 1.062-.486 1.753-.486 2.073 0 .954.43 1.648 1.292 2.082s1.884.662 3.066.685c1.382 0 2.822-.1 4.32-.3l2.248-.377c0-.794-.55-1.682-1.646-2.664l1.62-1.962c.495.308.886.795 1.173 1.46s.43 1.538.43 2.617h.546v2.716zm-7.182-8.284l1.083-1.336 1.646 1.405-1.203 1.422-1.578-1.31-1.083 1.31-1.62-1.38 1.194-1.43 1.56 1.32zm-.88-7.324l-3.352 1.833v-.917l3.352-1.85v.934zM85.18 15.188l-.448.41-.618.6c-.41.41-.614.817-.614 1.216.876.417 1.314.92 1.314 1.508 0 .16-.04.314-.12.463s-.183.286-.31.41-.267.226-.418.3a1.04 1.04 0 0 1-.465.111c-.432 0-.78-.167-1.045-.5s-.397-.772-.397-1.315c0-1.29.907-2.62 2.72-3.992l.4.788zm-9.157 1.2c0 2.04-.53 3.89-1.587 5.55-1.217 2.113-2.613 3.17-4.188 3.17-.74 0-1.626-.33-2.66-.994a14.6 14.6 0 0 1-1.467-1.156c-.392-.36-.748-.91-1.066-1.653.455.377 1.06.665 1.817.865.768.217 1.433.328 1.996.334.597-.006 1.372-.224 2.324-.655s1.655-.89 2.107-1.38.83-1.09 1.13-1.803l-.175.013-.158.004c-.864 0-1.79-.166-2.78-.497s-1.484-.768-1.484-1.31c0-1.65.37-3.14 1.11-4.472.7-1.136 1.376-1.705 2.03-1.705.756 0 1.454.644 2.094 1.932s.96 2.54.96 3.756zm-1.69-.583c-.006-.217-.182-.56-.53-1.032s-.648-.777-.904-.917-.5-.2-.734-.2c-.125 0-.25.043-.37.128s-.233.197-.333.334-.178.288-.235.454a1.43 1.43 0 0 0-.085.463c0 .28.392.518 1.177.715s1.3.296 1.544.296c.313 0 .47-.077.47-.23zM71.646 5.13l-3.352 1.833v-.917l3.352-1.85v.934zm-5.868 12.216c0 1.348-.185 2.022-.554 2.022h-7.2v-2.716h5.544c.125 0 .188-.106.188-.317 0-.154-.195-.58-.584-1.28s-.638-1.05-.746-1.05l1.45-2.262c.466.388.916 1.24 1.348 2.553.37 1.314.554 2.33.554 3.05zm-4.69 3.735l2.49 1.002-.913 2.03-2.44-1.028.86-2.005zm1.11-16.636L58.843 6.28v-.917l3.352-1.85v.934zm-3.66 14.923H55.72c-.62 0-1.046-.126-1.28-.377s-.35-.625-.35-1.122V8.3l1.79-1.6v9.33c0 .417.193.625.58.625h2.073v2.724zm-6.508-1.722c0 1.862-.424 3.404-1.27 4.626-1.15 1.633-2.29 2.45-3.42 2.45-.853 0-1.693-.42-2.52-1.264s-1.39-1.698-1.685-2.566l.46.283.832.437a5.26 5.26 0 0 0 .704.291 3.87 3.87 0 0 0 .704.158c.242.03.52.044.832.04 1.137-.057 2.117-.602 2.938-1.636s1.233-1.708 1.233-2.022c-.01-.69-.702-1.642-2.073-2.853l1.16-2.467.938.942c.28.286.513.615.704.99s.316.8.375 1.28a10.69 10.69 0 0 1 .09 1.311zM49.085 6.245l-3.352 1.833V7.16l3.352-1.85v.934zm-5.843 9.85c-.006.023-.01.043-.01.06a.12.12 0 0 1-.009.051V9.73l-.478-1.748 1.86-1.38.145 1.68.785.848-.657 1.422v6.707l-.01.89-.026.48c-.09.457-.923.767-2.495.93l-2.87.244c-3.457 0-5.186-.88-5.186-2.638 0-.788.173-1.522.52-2.202.574-1.057.95-1.588 1.126-1.593l.034.01v.07c0 .086-.013.224-.038.415l-.14.908-.102.74a1.35 1.35 0 0 0 .606 1.092c.387.277 1.436.415 3.147.415.466 0 1.122-.04 1.966-.12s1.395-.21 1.65-.394c.074-.04.128-.14.162-.3.006.03.01.063.01.103l.01-.214zm-2.15-3.975c0 1.353-.998 2.116-2.994 2.287-.188 0-.327-.02-.418-.06 1.336-.543 2.004-.91 2.004-1.105 0-.05-.048-.086-.145-.103s-.2-.03-.34-.034l-.397-.026c-.134-.01-.235-.04-.303-.086-.125-.086-.188-.26-.188-.523 0-.154.047-.334.14-.54s.235-.454.422-.745c.734-.777 1.223-1.165 1.467-1.165h.026l-.46.878-.307.638c.114.114.338.194.674.24l.768.12c.034.046.05.12.05.223zM42.16 1.62l-3.352 1.833v-.917L42.16.685v.934zm-16.45 4.67l2.158.874-.793 1.756-2.115-.89.75-1.74zm3.53 8.986c-.006 2.496-.287 3.806-.844 3.932-.756.11-1.58.163-2.474.163h-4.4v-2.716h5.263l-2.26-1.054c-.802-.354-1.203-.817-1.203-1.388 0-.56.444-1.448 1.33-2.664.745-1.057 1.382-1.585 1.91-1.585.665 0 1.362.68 2.1 2.04.205.428.354.954.448 1.576a11.47 11.47 0 0 1 .141 1.696zm-1.305-.42c0-.36-.205-.994-.614-1.902-.46-.788-.847-1.182-1.16-1.182-.074 0-.18.027-.32.08s-.337.158-.593.313-.435.317-.537.488-.165.306-.188.403l3.386 1.9c.017-.023.026-.06.026-.11zm-2.91 9.106l-3.7 2.236v-.985l3.7-2.262v1.01zm-2.994-4.592h-8.308v-2.716h5.595c.125 0 .188-.106.188-.317 0-.154-.162-.535-.486-1.144s-.617-1.02-.88-1.238l1.518-2.202c.517.583.93 1.418 1.24 2.506s.465 1.886.465 2.394h.665v2.716zm-4.137 3.05l1.083-1.336 1.646 1.405-1.203 1.422-1.578-1.31-1.083 1.31-1.62-1.38 1.194-1.43 1.56 1.32zM17.87 4.566c0 .617-.163 1.1-.5 1.452s-.786.527-1.378.527c-.256 0-.472-.03-.648-.086s-.32-.153-.43-.287-.2-.31-.24-.53a3.89 3.89 0 0 1-.073-.818 3 3 0 0 1 .119-.857 2.24 2.24 0 0 1 .341-.702c.148-.2.32-.36.52-.48a1.25 1.25 0 0 1 .657-.18c.506 0 .903.178 1.2.535s.43.832.43 1.426zm-.86-.043c0-.634-.287-.95-.86-.95a.55.55 0 0 0-.337.111c-.1.074-.186.166-.26.274s-.132.227-.175.356-.064.25-.064.364c0 .417.25.625.75.625.2 0 .36-.014.482-.043a.65.65 0 0 0 .286-.133.46.46 0 0 0 .141-.236c.026-.097.038-.22.038-.368zm-6.082 14.87c-.75 0-1.442-.1-2.073-.33a6.07 6.07 0 0 1-1.74-.947c-.267.834-.898 1.25-1.894 1.25H3.932v-2.716c2.28 0 3.46-.1 3.54-.3l.76-1.388c.45-.96.934-1.702 1.454-2.227s1.076-.788 1.668-.788c.38 0 .702.174.964.523s.55 1.076.86 2.184c.233.84.375 1.505.426 1.996h.63v2.716h-1.382l-.47-.214c-.392.16-.88.24-1.46.24zm.896-2.733c0-.37-.14-.835-.422-1.392s-.68-.835-1.198-.835c-.13 0-.323.063-.576.188s-.5.328-.772.608-.392.497-.392.65c0 .074.05.16.154.257s.364.223.785.377a5.5 5.5 0 0 0 1.318.304l.84.073c.176 0 .264-.077.264-.23zM10.236 4.446L6.883 6.28v-.917l3.352-1.85v.934zM4.444 19.368H1.63c-.62 0-1.046-.126-1.28-.377S0 18.366 0 17.87V8.3l1.79-1.6v9.33c0 .417.193.625.58.625h2.073v2.724zm235.215 38.06l-1.79 2.7v-11.11l1.79-2.424v10.845zm-1.245-16.602l-3.352 1.833v-.917l3.352-1.85v.934zm-3.14 16.413c0 1.348-.185 2.022-.554 2.022h-7.2v-2.716h5.544c.125 0 .188-.106.188-.317 0-.154-.195-.58-.584-1.28s-.638-1.05-.746-1.05l1.45-2.262c.466.388.916 1.24 1.348 2.553.37 1.314.554 2.33.554 3.05zm-4.69 3.735l2.49 1.002-.913 2.03-2.44-1.028.86-2.005zm1.083-16.516c0 .617-.163 1.1-.5 1.452s-.786.527-1.378.527c-.256 0-.472-.03-.648-.086s-.32-.153-.43-.287-.2-.31-.24-.53a3.89 3.89 0 0 1-.073-.818 3 3 0 0 1 .119-.857 2.24 2.24 0 0 1 .341-.702c.148-.2.32-.36.52-.48a1.25 1.25 0 0 1 .657-.18c.506 0 .903.178 1.2.535s.43.832.43 1.426zm-.86-.043c0-.634-.287-.95-.86-.95a.55.55 0 0 0-.337.111c-.1.074-.186.166-.26.274s-.132.227-.175.356-.064.25-.064.364c0 .417.25.625.75.625.2 0 .36-.014.482-.043a.65.65 0 0 0 .286-.133.46.46 0 0 0 .141-.236c.026-.097.038-.22.038-.368zm-7.515 3.22l.955-1.182 1.45 1.242-1.058 1.25-1.4-1.156-.955 1.156-1.433-1.216 1.058-1.26 1.373 1.165zm4.12 7.53l-.043 1.38h.665v2.716h-.69l-.623-.23c-.045.034-.097.057-.154.07-.756.11-1.58.163-2.474.163h-4.4v-2.716h5.263l-2.26-1.054c-.802-.354-1.203-.817-1.203-1.388 0-.56.444-1.448 1.33-2.664.745-1.057 1.382-1.585 1.91-1.585.665 0 1.362.68 2.1 2.04.205.428.354.954.448 1.576a11.47 11.47 0 0 1 .141 1.696zm-1.305-.42c0-.36-.205-.994-.614-1.902-.46-.788-.847-1.182-1.16-1.182-.074 0-.18.027-.32.08s-.337.158-.593.313-.435.317-.537.488-.165.306-.188.403l3.386 1.9c.017-.023.026-.06.026-.11zm-1.902-13.92l-3.352 1.833v-.917l3.352-1.85v.934zm-4 18.435h-8.308v-2.716h5.595c.125 0 .188-.106.188-.317 0-.154-.162-.535-.486-1.144s-.617-1.02-.88-1.238l1.518-2.202c.517.583.93 1.418 1.24 2.506s.465 1.886.465 2.394h.665v2.716zm-4.137 3.05l1.083-1.336 1.646 1.405-1.203 1.422-1.578-1.31-1.083 1.31-1.62-1.38 1.194-1.43 1.56 1.32zm-.026-17.852c0 .617-.163 1.1-.5 1.452s-.786.527-1.378.527c-.256 0-.472-.03-.648-.086s-.32-.153-.43-.287-.2-.31-.24-.53a3.89 3.89 0 0 1-.073-.818 3 3 0 0 1 .119-.857 2.24 2.24 0 0 1 .341-.702c.148-.2.32-.36.52-.48a1.25 1.25 0 0 1 .657-.18c.506 0 .903.178 1.2.535s.43.832.43 1.426zm-.86-.043c0-.634-.287-.95-.86-.95a.55.55 0 0 0-.337.111c-.1.074-.186.166-.26.274s-.132.227-.175.356-.064.25-.064.364c0 .417.25.625.75.625.2 0 .36-.014.482-.043a.65.65 0 0 0 .286-.133.46.46 0 0 0 .141-.236c.026-.097.038-.22.038-.368zm-2.772 14.845h-.955c-1.217.32-2.725.58-4.525.78l-4.047.3c-1.467 0-2.646-.296-3.536-.887s-1.335-1.452-1.335-2.583c0-1.245.61-2.558 1.834-3.94-.324 1.062-.486 1.753-.486 2.073 0 .954.43 1.648 1.292 2.082s1.884.662 3.066.685c1.382 0 2.822-.1 4.32-.3l2.248-.377c0-.794-.55-1.682-1.646-2.664l1.62-1.962c.495.308.886.795 1.173 1.46s.43 1.538.43 2.617h.546v2.716zm-7.182-8.284l1.083-1.336 1.646 1.405-1.203 1.422-1.578-1.31-1.083 1.31-1.62-1.38 1.194-1.43 1.56 1.32zm-.88-7.324l-3.352 1.833v-.917l3.352-1.85v.934zM192.81 56.28c0 2.04-.53 3.89-1.587 5.55-1.217 2.113-2.613 3.17-4.188 3.17-.74 0-1.626-.33-2.66-.994a14.6 14.6 0 0 1-1.467-1.156c-.392-.36-.748-.91-1.066-1.653.455.377 1.06.665 1.817.865.768.217 1.433.328 1.996.334.597-.006 1.372-.224 2.324-.655s1.655-.89 2.107-1.38.83-1.09 1.13-1.803l-.175.013-.158.004c-.864 0-1.79-.166-2.78-.497s-1.484-.768-1.484-1.31c0-1.65.37-3.14 1.11-4.472.7-1.136 1.376-1.705 2.03-1.705.756 0 1.454.644 2.094 1.932s.96 2.54.96 3.756zm-1.69-.583c-.006-.217-.182-.56-.53-1.032s-.648-.777-.904-.917-.5-.2-.734-.2c-.125 0-.25.043-.37.128s-.233.197-.333.334-.178.288-.235.454a1.43 1.43 0 0 0-.085.463c0 .28.392.518 1.177.715s1.3.296 1.544.296c.313 0 .47-.077.47-.23zm-2.687-10.674l-3.352 1.833v-.917l3.352-1.85v.934zm-4.47 14.237h-14.236v-2.716l9.7.017c0-.07-.25-.34-.746-.814a12.94 12.94 0 0 0-1.608-1.302c-.608-.423-1.26-.634-1.953-.634-.54 0-1.373.203-2.5.608.466-.81.796-1.31.99-1.5.5-.583 1.333-.874 2.5-.874 1.223 0 2.582.68 4.077 2.04a19.67 19.67 0 0 0 1.689 1.435c.552.414 1.25.74 2.098.98v2.758zm-7.933 1.713l2.49 1.002-.913 2.03-2.44-1.028.86-2.005zm.34-16.636l-3.352 1.833v-.917l3.352-1.85v.934zM170.24 59.26h-.606c-1.643 0-2.954-.468-3.932-1.405l-1.083.59c-1.427.543-2.58.814-3.455.814h-1.697v-2.716h2.196c.76 0 1.687-.183 2.785-.548l.12-.206c0-.206-.26-.497-.776-.874s-.896-.565-1.134-.565c-.41 0-.77.054-1.083.163.034-.246.233-.728.597-1.448.364-.73.68-1.216.947-1.456a4.66 4.66 0 0 1 2.132-.514c.404 0 .8.08 1.2.236s.74.365 1.053.625.536.49.67.694.2.5.2.86c0 .383-.36 1.16-1.083 2.33.353.468 1.163.702 2.43.702h.53v2.716zm-4.896-14.923l-3.352 1.833v-.917l3.352-1.85v.934zm-5.365 14.923h-6.773v-2.716h3.625v-8.412l1.79-1.55v9.963h1.356v2.716zm-2.124-18.435l-3.352 1.833v-.917l3.352-1.85v.934zm-3.992 18.435h-1.17c-.603 0-1.007-.146-1.21-.437-.28-.474-.466-1.234-.563-2.28 0-.206-.063-.363-.188-.47l-1.45 1.945-.333.043c-.347 0-1.203-.28-2.567-.84-.444-.194-.665-.448-.665-.762 0-.188.378-1.17 1.134-2.947.358-.748 1.24-1.288 2.644-1.62l.86-.206-.11-1.294 1.518-1.5v6.63c.01.685.247 1.025.708 1.02h1.382l.01 2.716zm-3.156-4.078l-.273-2.613c-1.5.445-2.6 1.048-3.3 1.807l1.753.917c.36.166.732.248 1.113.248.5 0 .736-.12.708-.36zm-.358-11.436l-.28.668-.41-.107-.563-.176c-.318.348-.677.684-1.075 1.007s-.844.635-1.34.938l-.367-.702c.01.006.028.01.05.01.125 0 .48-.226 1.066-.677l1.058-.9c-.682-.354-1.024-.754-1.024-1.2 0-.166.06-.346.183-.54a2.61 2.61 0 0 1 .456-.54c.182-.166.377-.304.584-.415s.39-.167.55-.167c.34 0 .573.067.695.2s.183.378.183.732c0 .394-.22.934-.657 1.62l.37.116.516.133zm-1.134-1.653c0-.21-.1-.317-.3-.317-.307 0-.46.177-.46.53 0 .263.154.497.46.702.2-.37.3-.677.3-.917zm-8.356 7.1l-.665 1.422v8.378l-.435.266h-5.314v-2.716h3.958v-6.7l-.34-1.807 1.774-1.465.222 1.765.802.848zm-1.902-8.37l-3.352 1.833v-.917l3.352-1.85v.934zM130.45 52.1c-.34 1.353-1.336 2.03-2.985 2.03-.188 0-.33-.02-.426-.06 1.444-.554 2.167-.922 2.167-1.105 0-.05-.05-.086-.15-.103s-.272-.03-.516-.034l-.392-.034c-.13-.01-.243-.05-.337-.11s-.14-.226-.14-.488c0-.286.273-.714.82-1.285.614-.702 1.03-1.005 1.245-.908l-.67.985c-.122.223-.183.428-.183.617-.017.063.154.11.512.146l.742.077.264.026c.034.046.05.128.05.248zm1.953 4v-8.464l1.79-1.054v9.963h.76v2.716h-1.467c-1.69.234-3.213.35-4.572.35-3.503 0-5.283-.937-5.34-2.8 0-.782.432-1.847 1.297-3.195.17-.2.293-.297.367-.29.074.07.05.337-.068.805s-.18.908-.18 1.32c0 .388.202.73.606 1.028s1.478.445 3.224.445c.466 0 1.015-.04 1.646-.12.37-.05.682-.11.938-.18l.844-.214c.068-.04.12-.14.154-.3zm-3.77-15.274l-3.352 1.833v-.917l3.352-1.85v.934zm-11.24 17.955c-.597.32-1.17.48-1.723.48h-9.937l.034-2.716c1.757 0 2.653-.146 2.687-.437v-6.253l-.392-1.465 1.766-1.722.136 1.68.972.848-.887 1.422v4.866c.068-.16.56-.55 1.476-1.174 1.74-1.314 2.97-1.973 3.693-1.98.57 0 1.03.07 1.382.206 1.308.53 1.953 1.6 1.936 3.238-.045.554-.185 1.15-.418 1.8-.176.6-.418 1.005-.725 1.216zm-.068-2.604c0-.457-.412-.842-1.237-1.156-.8-.286-1.456-.428-1.996-.428-.307 0-.836.177-1.587.53-1.643.897-2.465 1.462-2.465 1.696 0 .114 1.277.17 3.83.17 2.303 0 3.455-.27 3.455-.814zM109.6 41.51l-3.352 1.833v-.917l3.352-1.85v.934zm-3.318 17.75h-2.644c-.142.086-.22.177-.23.274.028.103.108.314.24.634.01.394-.158 1.27-.508 2.63s-.77 2.04-1.258 2.04c-.853-.074-1.703-.608-2.55-1.602-.847-1.08-1.282-2.404-1.305-3.975H95.74v-2.724l2.755.026c.375-1.314.856-2.453 1.442-3.418 1.302-1.833 2.152-2.75 2.55-2.75.16 0 .35.44.57 1.32s.333 1.8.333 2.793c0 .188-.057.445-.17.77s-.404.745-.87 1.26h3.932v2.724zm-3.642 2.493c0-.782-.33-1.403-.99-1.863s-1.29-.7-1.894-.7h-.273c-.074 0-.142.05-.205.154 0 .52.284 1.145.853 1.876.57.72 1.21 1.08 1.928 1.08.38 0 .574-.186.58-.557zm-.46-6.373c-.12-1.468-.35-2.202-.69-2.202-.233 0-.62.448-1.16 1.345s-.833 1.54-.88 1.927c.04.063.1.094.18.094h.44c.22 0 .546-.057.98-.17s.79-.283 1.062-.505c.045-.07.068-.23.068-.488zm-.904-10.948l-.28.668-.41-.107-.563-.176c-.318.348-.677.684-1.075 1.007s-.844.635-1.34.938l-.367-.702c.01.006.028.01.05.01.125 0 .48-.226 1.066-.677l1.058-.9c-.682-.354-1.024-.754-1.024-1.2 0-.166.06-.346.183-.54a2.61 2.61 0 0 1 .456-.54c.182-.166.377-.304.584-.415s.39-.167.55-.167c.34 0 .573.067.695.2s.183.378.183.732c0 .394-.22.934-.657 1.62l.37.116.516.133zm-1.134-1.653c0-.21-.1-.317-.3-.317-.307 0-.46.177-.46.53 0 .263.154.497.46.702.2-.37.3-.677.3-.917zM95.517 59.26c-.245 1.216-.84 2.42-1.787 3.61s-2.208 1.786-3.783 1.786c-.74 0-1.626-.33-2.66-.994a14.6 14.6 0 0 1-1.467-1.156c-.392-.36-.748-.797-1.066-1.31l1.817.523c.768.217 1.433.328 1.996.334 1.166-.006 2.31-.268 3.43-.788s1.83-1.136 2.132-1.85l-.175.013-.158.004c-.864 0-1.79-.166-2.78-.497s-1.484-.768-1.484-1.31c0-1.65.37-3.14 1.11-4.472.7-1.136 1.376-1.705 2.03-1.705.756 0 1.453.645 2.1 1.936.54 1.08.853 2.133.938 3.16h.554v2.716h-.734zm-1.484-2.707c-.006-.217-.182-.56-.53-1.032s-.648-.777-.904-.917-.5-.2-.734-.2c-.125 0-.25.043-.37.128s-.233.197-.333.334-.178.288-.235.454a1.43 1.43 0 0 0-.085.463c0 .28.392.518 1.177.715s1.3.296 1.544.296c.313 0 .47-.077.47-.23zm-4.418-12.438c0 .617-.163 1.1-.5 1.452s-.786.527-1.378.527c-.256 0-.472-.03-.648-.086s-.32-.153-.43-.287-.2-.31-.24-.53a3.89 3.89 0 0 1-.073-.818 3 3 0 0 1 .119-.857 2.24 2.24 0 0 1 .341-.702c.148-.2.32-.36.52-.48a1.25 1.25 0 0 1 .657-.18c.506 0 .903.178 1.2.535s.43.832.43 1.426zm-.86-.043c0-.634-.287-.95-.86-.95a.55.55 0 0 0-.337.111c-.1.074-.186.166-.26.274s-.132.227-.175.356-.064.25-.064.364c0 .417.25.625.75.625.2 0 .36-.014.482-.043a.65.65 0 0 0 .286-.133.46.46 0 0 0 .141-.236c.026-.097.038-.22.038-.368zM85.46 57.54c0 1.862-.424 3.404-1.27 4.626-1.15 1.633-2.29 2.45-3.42 2.45-.853 0-1.693-.42-2.52-1.264s-1.39-1.698-1.685-2.566l.46.283.832.437a5.26 5.26 0 0 0 .704.291 3.87 3.87 0 0 0 .704.158c.242.03.52.044.832.04 1.137-.057 2.117-.602 2.938-1.636s1.233-1.708 1.233-2.022c-.01-.69-.702-1.642-2.073-2.853l1.16-2.467.938.942c.28.286.513.615.704.99s.316.8.375 1.28a10.69 10.69 0 0 1 .09 1.311zm-2.943-11.162l-3.693 2.184v-.857l3.693-2.244v.917zm0-2.16l-3.668 2.227v-.84l3.668-2.236v.848zm-4.598 13.21l-1.79 2.7v-11.11l1.79-2.424v10.845z" fill="#4a4a4a" fill-rule="evenodd"/></svg>