<svg xmlns="http://www.w3.org/2000/svg" width="16" height="14" xmlns:v="https://vecta.io/nano"><path d="M11.484 14c.417 0 .76-.16 1.03-.477a1.32 1.32 0 0 0 .313-1.102l-.562-3.406 2.36-2.406a1.39 1.39 0 0 0 .352-.648 1.31 1.31 0 0 0-.039-.734c-.083-.245-.22-.448-.414-.61s-.414-.263-.664-.305l-3.203-.484L9.218.78C9.104.53 8.932.34 8.703.203 8.484.068 8.25 0 8 0s-.484.068-.703.203c-.23.135-.4.328-.516.578L5.343 3.828l-3.203.484c-.25.042-.47.143-.664.305s-.33.365-.414.61a1.31 1.31 0 0 0-.039.734 1.39 1.39 0 0 0 .352.648l2.36 2.406-.562 3.406a1.32 1.32 0 0 0 .313 1.102c.27.318.615.477 1.03.477.23 0 .448-.057.656-.172L8 12.266l2.828 1.563c.208.115.427.172.656.172zm0-1.125c-.042 0-.078-.01-.11-.03L8.11 11.047c-.03-.02-.068-.03-.11-.03s-.078.01-.11.03l-3.266 1.797c-.03.02-.068.03-.11.03a.23.23 0 0 1-.18-.078.22.22 0 0 1-.055-.187l.64-3.86a.21.21 0 0 0-.062-.187l-2.672-2.75c-.073-.062-.094-.138-.062-.227s.094-.138.188-.148l3.672-.562a.2.2 0 0 0 .172-.141l1.64-3.47c.042-.094.11-.14.203-.14s.16.047.203.14l1.64 3.47c.03.073.09.12.172.14l3.672.547c.094.02.156.076.188.164s.01.164-.062.227l-2.672 2.75a.21.21 0 0 0-.062.188l.64 3.86a.22.22 0 0 1-.055.188.23.23 0 0 1-.18.078z" fill="#fc5000"/></svg>