<?xml version="1.0" encoding="UTF-8"?>
<svg width="14px" height="15px" viewBox="0 0 14 15" version="1.1" xmlns="http://www.w3.org/2000/svg" xmlns:xlink="http://www.w3.org/1999/xlink">
    <title>D4D0F089-21DA-4FF5-A5E9-7622CACEC193</title>
    <g id="whitelabel-1.0" stroke="none" stroke-width="1" fill="none" fill-rule="evenodd">
        <g id="campaign-detail" transform="translate(-16.000000, -18.000000)" fill="#52565B" fill-rule="nonzero">
            <g id="back-icon" transform="translate(16.000000, 18.093750)">
                <path d="M6.90625,13.8125 C7.01041667,13.8125 7.10416667,13.78125 7.1875,13.71875 L7.8125,13.09375 C7.875,13.03125 7.90625,12.9479167 7.90625,12.84375 C7.90625,12.7395833 7.875,12.6458333 7.8125,12.5625 L2.96875,7.71875 L13.625,7.71875 C13.7291667,7.71875 13.8177083,7.68229167 13.890625,7.609375 C13.9635417,7.53645833 14,7.44791667 14,7.34375 L14,6.46875 C14,6.36458333 13.9635417,6.27604167 13.890625,6.203125 C13.8177083,6.13020833 13.7291667,6.09375 13.625,6.09375 L2.96875,6.09375 L7.8125,1.25 C7.875,1.16666667 7.90625,1.07291667 7.90625,0.96875 C7.90625,0.864583333 7.875,0.78125 7.8125,0.71875 L7.1875,0.09375 C7.10416667,0.03125 7.01041667,0 6.90625,0 C6.80208333,0 6.71875,0.03125 6.65625,0.09375 L0.125,6.65625 C0.0416666667,6.71875 0,6.80208333 0,6.90625 C0,7.01041667 0.0416666667,7.09375 0.125,7.15625 L6.65625,13.71875 C6.71875,13.78125 6.80208333,13.8125 6.90625,13.8125 Z" id="ï "></path>
            </g>
        </g>
    </g>
</svg>