<svg xmlns="http://www.w3.org/2000/svg" width="16" height="16" xmlns:v="https://vecta.io/nano"><path d="M13.188 16c.77 0 1.432-.276 1.984-.828S16 13.958 16 13.188V8a8.22 8.22 0 0 0-1.141-3.969c-.72-1.23-1.66-2.198-2.828-2.906C10.802.375 9.458 0 8 0S5.198.375 3.97 1.125C2.802 1.833 1.86 2.802 1.14 4.03A8.22 8.22 0 0 0 0 8v.5c0 .146.047.266.14.36S.354 9 .5 9H1c.146 0 .266-.047.36-.14s.14-.214.14-.36V8c0-1.167.292-2.25.875-3.25A6.49 6.49 0 0 1 4.75 2.375C5.75 1.792 6.833 1.5 8 1.5s2.25.292 3.25.875a6.49 6.49 0 0 1 2.375 2.375c.583 1 .875 2.083.875 3.25v5.188a1.26 1.26 0 0 1-.391.922 1.26 1.26 0 0 1-.922.391H10c0-.417-.146-.77-.437-1.062S8.917 13 8.5 13h-1c-.417 0-.77.146-1.062.438S6 14.083 6 14.5s.146.77.438 1.063S7.083 16 7.5 16h5.688zM6 11.5a.96.96 0 0 0 .703-.297A.96.96 0 0 0 7 10.5V6a.96.96 0 0 0-.297-.703A.96.96 0 0 0 6 5H4.5c-.562 0-1.036.198-1.422.594S2.5 6.458 2.5 7v2.5a1.93 1.93 0 0 0 .578 1.422A1.93 1.93 0 0 0 4.5 11.5H6zm5.5 0a1.93 1.93 0 0 0 1.422-.578A1.93 1.93 0 0 0 13.5 9.5V7c0-.542-.193-1-.578-1.406S12.063 5 11.5 5H10a.96.96 0 0 0-.703.297A.96.96 0 0 0 9 6v4.5a.96.96 0 0 0 .297.703.96.96 0 0 0 .703.297h1.5zm-6-1.5h-1c-.146 0-.266-.047-.36-.14S4 9.646 4 9.5V7c0-.125.047-.24.14-.344A.46.46 0 0 1 4.5 6.5h1V10zm6 0h-1V6.5h1a.46.46 0 0 1 .359.156c.094.104.14.22.14.344v2.5c0 .146-.047.266-.14.36s-.214.14-.36.14z" fill="#fc5000"/></svg>