<?xml version="1.0" encoding="UTF-8"?>
<svg width="16px" height="21px" viewBox="0 0 16 21" version="1.1" xmlns="http://www.w3.org/2000/svg" xmlns:xlink="http://www.w3.org/1999/xlink">
    <title>85AB9977-7B05-41A4-B7FB-8047E6E57769</title>
    <g id="whitelabel-1.0" stroke="none" stroke-width="1" fill="none" fill-rule="evenodd">
        <g id="riwayat-donasi" transform="translate(-172.000000, -934.000000)">
            <g id="navbar" transform="translate(0.000000, 923.000000)">
                <g id="icon-riwayat-donasi-active" transform="translate(172.500000, 11.500000)">
                    <polygon id="Path-7" fill="#FC5000" points="1.5 1.5 10.5 1.5 13.5 4.5 13.5 18.5 1.5 18.5"></polygon>
                    <path d="M13.125,20 C13.6458333,20 14.0885417,19.8177083 14.453125,19.453125 C14.8177083,19.0885417 15,18.6458333 15,18.125 L15,5.15625 C15,4.63541667 14.8177083,4.19270833 14.453125,3.828125 L11.171875,0.546875 C10.8072917,0.182291667 10.3645833,0 9.84375,0 L1.875,0 C1.35416667,0 0.911458333,0.182291667 0.546875,0.546875 C0.182291667,0.911458333 0,1.35416667 0,1.875 L0,18.125 C0,18.6458333 0.182291667,19.0885417 0.546875,19.453125 C0.911458333,19.8177083 1.35416667,20 1.875,20 L13.125,20 Z M13.125,18.125 L1.875,18.125 L1.875,1.875 L8.125,1.875 L8.125,5.9375 C8.125,6.19791667 8.21614583,6.41927083 8.3984375,6.6015625 C8.58072917,6.78385417 8.80208333,6.875 9.0625,6.875 L13.125,6.875 L13.125,18.125 Z M12.96875,5 L10,5 L10,2.03125 L12.96875,5 Z M6.171875,16.25 C6.30208333,16.25 6.41927083,16.2109375 6.5234375,16.1328125 L12.0703125,10.5859375 C12.1744792,10.5078125 12.2265625,10.4036458 12.2265625,10.2734375 C12.2265625,10.1432292 12.1744792,10.0260417 12.0703125,9.921875 L11.2109375,9.0625 C11.1067708,8.95833333 10.9895833,8.90625 10.859375,8.90625 C10.7291667,8.90625 10.625,8.95833333 10.546875,9.0625 L6.2109375,13.359375 L4.4921875,11.6015625 C4.38802083,11.5234375 4.27083333,11.484375 4.140625,11.484375 C4.01041667,11.484375 3.90625,11.5234375 3.828125,11.6015625 L2.9296875,12.5 C2.82552083,12.578125 2.7734375,12.6822917 2.7734375,12.8125 C2.7734375,12.9427083 2.82552083,13.0598958 2.9296875,13.1640625 L5.859375,16.09375 C5.9375,16.1979167 6.04166667,16.25 6.171875,16.25 Z" id="" fill="#632000" fill-rule="nonzero"></path>
                </g>
            </g>
        </g>
    </g>
</svg>