<?xml version="1.0" encoding="UTF-8"?>
<svg width="15px" height="15px" viewBox="0 0 15 15" version="1.1" xmlns="http://www.w3.org/2000/svg" xmlns:xlink="http://www.w3.org/1999/xlink">
    <title>524F13E4-9782-45EE-B6A6-004AC7022476</title>
    <g id="whitelabel-1.0" stroke="none" stroke-width="1" fill="none" fill-rule="evenodd">
        <g id="FAQ" transform="translate(-330.000000, -91.000000)" fill="#FC5000" fill-rule="nonzero">
            <g id="FAQ-1" transform="translate(16.000000, 80.000000)">
                <g id="circle-up-icon" transform="translate(314.218750, 11.968750)">
                    <path d="M6.78125,13.5625 C8.00260417,13.5625 9.1328125,13.2571615 10.171875,12.6464844 C11.2109375,12.0358073 12.0358073,11.2109375 12.6464844,10.171875 C13.2571615,9.1328125 13.5625,8.00260417 13.5625,6.78125 C13.5625,5.55989583 13.2571615,4.4296875 12.6464844,3.390625 C12.0358073,2.3515625 11.2109375,1.52669271 10.171875,0.916015625 C9.1328125,0.305338542 8.00260417,0 6.78125,0 C5.55989583,0 4.4296875,0.305338542 3.390625,0.916015625 C2.3515625,1.52669271 1.52669271,2.3515625 0.916015625,3.390625 C0.305338542,4.4296875 0,5.55989583 0,6.78125 C0,8.00260417 0.305338542,9.1328125 0.916015625,10.171875 C1.52669271,11.2109375 2.3515625,12.0358073 3.390625,12.6464844 C4.4296875,13.2571615 5.55989583,13.5625 6.78125,13.5625 Z M6.79492188,12.6875 C5.72851562,12.6875 4.73958333,12.4231771 3.828125,11.8945312 C2.91666667,11.3658854 2.19661458,10.6503906 1.66796875,9.74804688 C1.13932292,8.84570312 0.875,7.85677083 0.875,6.78125 C0.875,5.72395833 1.13932292,4.73958333 1.66796875,3.828125 C2.19661458,2.91666667 2.91210938,2.19661458 3.81445312,1.66796875 C4.71679688,1.13932292 5.70117188,0.875 6.76757812,0.875 C7.83398438,0.875 8.82291667,1.13932292 9.734375,1.66796875 C10.6458333,2.19661458 11.3658854,2.91210938 11.8945312,3.81445312 C12.4231771,4.71679688 12.6875,5.70117188 12.6875,6.76757812 C12.6875,7.83398438 12.4231771,8.82291667 11.8945312,9.734375 C11.3658854,10.6458333 10.6503906,11.3658854 9.74804688,11.8945312 C8.84570312,12.4231771 7.86132813,12.6875 6.79492188,12.6875 Z M9.734375,8.3125 C9.82552083,8.3125 9.8984375,8.28515625 9.953125,8.23046875 L10.171875,8.0390625 C10.2265625,7.96614583 10.2539062,7.88411458 10.2539062,7.79296875 C10.2539062,7.70182292 10.2265625,7.61979167 10.171875,7.546875 L7.02734375,4.40234375 C6.95442708,4.34765625 6.87239583,4.3203125 6.78125,4.3203125 C6.69010417,4.3203125 6.60807292,4.34765625 6.53515625,4.40234375 L3.390625,7.546875 C3.3359375,7.61979167 3.30859375,7.70182292 3.30859375,7.79296875 C3.30859375,7.88411458 3.3359375,7.95703125 3.390625,8.01171875 L3.58203125,8.203125 C3.65494792,8.27604167 3.73697917,8.3125 3.828125,8.3125 C3.91927083,8.3125 4.00130208,8.27604167 4.07421875,8.203125 L6.78125,5.49609375 L9.48828125,8.23046875 C9.56119792,8.28515625 9.64322917,8.3125 9.734375,8.3125 Z" id=""></path>
                </g>
            </g>
        </g>
    </g>
</svg>