<svg xmlns="http://www.w3.org/2000/svg" width="17" height="17" xmlns:v="https://vecta.io/nano"><path d="M10 15.5a.72.72 0 0 0 .406-.266.77.77 0 0 0 .156-.484v-1.125c.354-.167.698-.365 1.03-.594l.97.563a.86.86 0 0 0 .5.094c.167-.02.302-.094.406-.22A7.82 7.82 0 0 0 15.5 10a.68.68 0 0 0-.047-.469c-.073-.167-.182-.292-.328-.375l-.97-.562a11.29 11.29 0 0 0 0-1.187l.97-.562c.146-.083.255-.208.328-.375A.68.68 0 0 0 15.5 6a7.82 7.82 0 0 0-2.031-3.469c-.104-.125-.24-.198-.406-.22a.86.86 0 0 0-.5.094l-.97.563c-.333-.23-.677-.427-1.03-.594V1.25a.77.77 0 0 0-.156-.484A.72.72 0 0 0 10 .5a7.66 7.66 0 0 0-4 0 .72.72 0 0 0-.406.266.77.77 0 0 0-.156.484v1.125c-.354.167-.698.365-1.03.594l-.97-.562a.86.86 0 0 0-.5-.094c-.167.02-.302.094-.406.22A7.82 7.82 0 0 0 .5 6a.68.68 0 0 0 .047.469c.073.167.182.292.328.375l.97.563a11.29 11.29 0 0 0 0 1.188l-.97.563C.73 9.24.62 9.364.547 9.53A.68.68 0 0 0 .5 10a7.82 7.82 0 0 0 2.031 3.469c.104.125.24.198.406.22a.86.86 0 0 0 .5-.094l.97-.562c.333.23.677.427 1.03.594v1.125a.77.77 0 0 0 .156.484A.72.72 0 0 0 6 15.5a7.66 7.66 0 0 0 4 0zm-3.063-1.344v-1.562l-1.266-.547c-.24-.135-.61-.41-1.11-.828L3.187 12c-.458-.562-.812-1.177-1.062-1.844l1.375-.78C3.375 8.73 3.312 8.27 3.312 8s.063-.73.188-1.375l-1.375-.78c.25-.667.604-1.28 1.062-1.844l1.375.78c.5-.417.87-.693 1.11-.828s.66-.318 1.266-.547V1.843a6.07 6.07 0 0 1 2.125 0v1.563l1.266.547c.24.135.61.41 1.11.828L12.812 4c.458.563.813 1.177 1.063 1.844l-1.375.78c.125.646.188 1.104.188 1.375s-.062.73-.187 1.375l1.375.78c-.25.667-.604 1.28-1.062 1.844l-1.375-.78c-.5.417-.87.693-1.11.828s-.66.318-1.266.547v1.563a6.07 6.07 0 0 1-2.125 0zM8 11a2.89 2.89 0 0 0 2.125-.875A2.89 2.89 0 0 0 11 8a2.89 2.89 0 0 0-.875-2.125A2.89 2.89 0 0 0 8 5a2.89 2.89 0 0 0-2.125.875A2.89 2.89 0 0 0 5 8a2.89 2.89 0 0 0 .875 2.125A2.89 2.89 0 0 0 8 11zm0-1.5c-.417 0-.77-.146-1.062-.437S6.5 8.416 6.5 8s.146-.77.438-1.062S7.583 6.5 8 6.5s.77.146 1.063.438S9.5 7.583 9.5 8s-.146.77-.437 1.063S8.416 9.5 8 9.5z" fill="#fc5000"/></svg>