<svg xmlns="http://www.w3.org/2000/svg" width="45" height="51" xmlns:v="https://vecta.io/nano"><path d="M26.688 50.25c1.302 0 2.41-.456 3.32-1.367s1.367-2.018 1.367-3.32v-4.687h7.813c1.302 0 2.41-.456 3.32-1.367s1.367-2.018 1.367-3.32V10.016c0-1.302-.456-2.41-1.367-3.32L37.43 1.617C36.518.706 35.41.25 34.11.25H17.313c-1.302 0-2.41.456-3.32 1.367s-1.367 2.018-1.367 3.32v4.688H4.813c-1.302 0-2.41.456-3.32 1.367S.125 13 .125 14.313v31.25c0 1.302.456 2.41 1.367 3.32S3.5 50.25 4.813 50.25h21.875zM40.75 9.625H34.5v-6.25c.26.13.488.293.684.488l5.078 5.078c.195.195.358.423.488.684zM39.188 37.75H17.313c-.456 0-.83-.146-1.123-.44s-.44-.667-.44-1.123V4.938c0-.456.146-.83.44-1.123s.667-.44 1.123-.44h14.063v7.03a2.26 2.26 0 0 0 .684 1.66 2.26 2.26 0 0 0 1.66.684h7.03v23.438c0 .456-.146.83-.44 1.123s-.667.44-1.123.44zm-12.5 9.375H4.813c-.456 0-.83-.146-1.123-.44s-.44-.667-.44-1.123v-31.25c0-.456.146-.83.44-1.123s.667-.44 1.123-.44h7.813v23.438c0 1.302.456 2.41 1.367 3.32s2.018 1.367 3.32 1.367H28.25v4.688c0 .456-.146.83-.44 1.123s-.667.44-1.123.44z" fill="#4a4a4a"/></svg>