<?xml version="1.0" encoding="UTF-8"?>
<svg width="14px" height="16px" viewBox="0 0 14 16" version="1.1" xmlns="http://www.w3.org/2000/svg" xmlns:xlink="http://www.w3.org/1999/xlink">
    <title>BEF570C2-6F0A-4C3B-8FEC-CC7E3C5DC453</title>
    <g id="whitelabel-1.0" stroke="none" stroke-width="1" fill="none" fill-rule="evenodd">
        <g id="campaign-detail" transform="translate(-26.000000, -2290.000000)" fill="#4A4A4A" fill-rule="nonzero">
            <g id="button-shara" transform="translate(0.000000, 2262.000000)">
                <g id="ic_share" transform="translate(26.000000, 28.000000)">
                    <path d="M11,16 C11.8333333,16 12.5416667,15.7083333 13.125,15.125 C13.7083333,14.5416667 14,13.8333333 14,13 C14,12.1666667 13.7083333,11.4583333 13.125,10.875 C12.5416667,10.2916667 11.84375,10 11.03125,10 C10.21875,10 9.52083333,10.2708333 8.9375,10.8125 L8.9375,10.8125 L5.875,8.90625 C6.0625,8.30208333 6.0625,7.69791667 5.875,7.09375 L5.875,7.09375 L8.9375,5.1875 C9.52083333,5.72916667 10.21875,6 11.03125,6 C11.84375,6 12.5416667,5.70833333 13.125,5.125 C13.7083333,4.54166667 14,3.83333333 14,3 C14,2.16666667 13.7083333,1.45833333 13.125,0.875 C12.5416667,0.291666667 11.8333333,0 11,0 C10.1666667,0 9.45833333,0.291666667 8.875,0.875 C8.29166667,1.45833333 8,2.16666667 8,3 C8,3.3125 8.04166667,3.61458333 8.125,3.90625 L8.125,3.90625 L5.0625,5.8125 C4.47916667,5.27083333 3.78125,5 2.96875,5 C2.15625,5 1.45833333,5.29166667 0.875,5.875 C0.291666667,6.45833333 0,7.16666667 0,8 C0,8.83333333 0.291666667,9.54166667 0.875,10.125 C1.45833333,10.7083333 2.15625,11 2.96875,11 C3.78125,11 4.47916667,10.7291667 5.0625,10.1875 L5.0625,10.1875 L8.125,12.09375 C8.04166667,12.3854167 8,12.6875 8,13 C8,13.8333333 8.29166667,14.5416667 8.875,15.125 C9.45833333,15.7083333 10.1666667,16 11,16 Z M11,4.5 C10.5833333,4.5 10.2291667,4.35416667 9.9375,4.0625 C9.64583333,3.77083333 9.5,3.41666667 9.5,3 C9.5,2.58333333 9.64583333,2.22916667 9.9375,1.9375 C10.2291667,1.64583333 10.5833333,1.5 11,1.5 C11.4166667,1.5 11.7708333,1.64583333 12.0625,1.9375 C12.3541667,2.22916667 12.5,2.58333333 12.5,3 C12.5,3.41666667 12.3541667,3.77083333 12.0625,4.0625 C11.7708333,4.35416667 11.4166667,4.5 11,4.5 Z M3,9.5 C2.58333333,9.5 2.22916667,9.35416667 1.9375,9.0625 C1.64583333,8.77083333 1.5,8.41666667 1.5,8 C1.5,7.58333333 1.64583333,7.22916667 1.9375,6.9375 C2.22916667,6.64583333 2.58333333,6.5 3,6.5 C3.41666667,6.5 3.77083333,6.64583333 4.0625,6.9375 C4.35416667,7.22916667 4.5,7.58333333 4.5,8 C4.5,8.41666667 4.35416667,8.77083333 4.0625,9.0625 C3.77083333,9.35416667 3.41666667,9.5 3,9.5 Z M11,14.5 C10.5833333,14.5 10.2291667,14.3541667 9.9375,14.0625 C9.64583333,13.7708333 9.5,13.4166667 9.5,13 C9.5,12.5833333 9.64583333,12.2291667 9.9375,11.9375 C10.2291667,11.6458333 10.5833333,11.5 11,11.5 C11.4166667,11.5 11.7708333,11.6458333 12.0625,11.9375 C12.3541667,12.2291667 12.5,12.5833333 12.5,13 C12.5,13.4166667 12.3541667,13.7708333 12.0625,14.0625 C11.7708333,14.3541667 11.4166667,14.5 11,14.5 Z" id=""></path>
                </g>
            </g>
        </g>
    </g>
</svg>