<?xml version="1.0" encoding="UTF-8"?>
<svg width="21px" height="21px" viewBox="0 0 21 21" version="1.1" xmlns="http://www.w3.org/2000/svg" xmlns:xlink="http://www.w3.org/1999/xlink">
    <title>C5C28B39-AF67-46ED-9EAB-D5006F10B8C5</title>
    <g id="whitelabel-1.0" stroke="none" stroke-width="1" fill="none" fill-rule="evenodd">
        <g id="profile" transform="translate(-278.000000, -726.000000)">
            <g id="navbar" transform="translate(0.000000, 715.000000)">
                <g id="icon-account-active" transform="translate(278.312500, 11.812500)">
                    <circle id="Oval" fill="#FC5000" cx="9.6875" cy="9.1875" r="9"></circle>
                    <circle id="Oval" fill="#FFFFFF" cx="9.6875" cy="7.1875" r="3"></circle>
                    <polygon id="Path-7" fill="#FFFFFF" points="3.6875 16.1875 5.6875 13.1875 9.6875 13.1875 13.6875 13.1875 15.6875 15.1875 12.6875 18.1875 6.6875 18.1875"></polygon>
                    <path d="M9.6875,19.375 C11.4322917,19.375 13.046875,18.9388021 14.53125,18.0664062 C16.015625,17.1940104 17.1940104,16.015625 18.0664062,14.53125 C18.9388021,13.046875 19.375,11.4322917 19.375,9.6875 C19.375,7.94270833 18.9388021,6.328125 18.0664062,4.84375 C17.1940104,3.359375 16.015625,2.18098958 14.53125,1.30859375 C13.046875,0.436197917 11.4322917,0 9.6875,0 C7.94270833,0 6.328125,0.436197917 4.84375,1.30859375 C3.359375,2.18098958 2.18098958,3.359375 1.30859375,4.84375 C0.436197917,6.328125 0,7.94270833 0,9.6875 C0,11.4322917 0.436197917,13.046875 1.30859375,14.53125 C2.18098958,16.015625 3.359375,17.1940104 4.84375,18.0664062 C6.328125,18.9388021 7.94270833,19.375 9.6875,19.375 Z M16.0546875,14.21875 C15.5598958,13.59375 14.9544271,13.0989583 14.2382812,12.734375 C13.5221354,12.3697917 12.7604167,12.1875 11.953125,12.1875 C11.8489583,12.1875 11.6666667,12.2265625 11.40625,12.3046875 C10.78125,12.4869792 10.2083333,12.578125 9.6875,12.578125 C9.16666667,12.578125 8.59375,12.4869792 7.96875,12.3046875 C7.70833333,12.2265625 7.52604167,12.1875 7.421875,12.1875 C6.61458333,12.1875 5.85286458,12.3697917 5.13671875,12.734375 C4.42057292,13.0989583 3.81510417,13.59375 3.3203125,14.21875 C2.35677083,12.8645833 1.875,11.3541667 1.875,9.6875 C1.875,8.28125 2.2265625,6.97916667 2.9296875,5.78125 C3.6328125,4.58333333 4.58333333,3.6328125 5.78125,2.9296875 C6.97916667,2.2265625 8.28125,1.875 9.6875,1.875 C11.09375,1.875 12.3958333,2.2265625 13.59375,2.9296875 C14.7916667,3.6328125 15.7421875,4.58333333 16.4453125,5.78125 C17.1484375,6.97916667 17.5,8.28125 17.5,9.6875 C17.5,11.3541667 17.0182292,12.8645833 16.0546875,14.21875 Z M9.6875,11.25 C10.7291667,11.25 11.6145833,10.8854167 12.34375,10.15625 C13.0729167,9.42708333 13.4375,8.54166667 13.4375,7.5 C13.4375,6.45833333 13.0729167,5.57291667 12.34375,4.84375 C11.6145833,4.11458333 10.7291667,3.75 9.6875,3.75 C8.64583333,3.75 7.76041667,4.11458333 7.03125,4.84375 C6.30208333,5.57291667 5.9375,6.45833333 5.9375,7.5 C5.9375,8.54166667 6.30208333,9.42708333 7.03125,10.15625 C7.76041667,10.8854167 8.64583333,11.25 9.6875,11.25 Z M9.6875,9.375 C9.16666667,9.375 8.72395833,9.19270833 8.359375,8.828125 C7.99479167,8.46354167 7.8125,8.02083333 7.8125,7.5 C7.8125,6.97916667 7.99479167,6.53645833 8.359375,6.171875 C8.72395833,5.80729167 9.16666667,5.625 9.6875,5.625 C10.2083333,5.625 10.6510417,5.80729167 11.015625,6.171875 C11.3802083,6.53645833 11.5625,6.97916667 11.5625,7.5 C11.5625,8.02083333 11.3802083,8.46354167 11.015625,8.828125 C10.6510417,9.19270833 10.2083333,9.375 9.6875,9.375 Z M9.6875,17.5 C8.72395833,17.5 7.8125,17.3372396 6.953125,17.0117188 C6.09375,16.6861979 5.3125,16.2239583 4.609375,15.625 C4.89583333,15.15625 5.27994792,14.7851562 5.76171875,14.5117188 C6.24348958,14.2382812 6.77083333,14.0885417 7.34375,14.0625 C8.15104167,14.3229167 8.93880208,14.453125 9.70703125,14.453125 C10.4752604,14.453125 11.2630208,14.3229167 12.0703125,14.0625 C12.6171875,14.0885417 13.1315104,14.2382812 13.6132812,14.5117188 C14.0950521,14.7851562 14.4791667,15.15625 14.765625,15.625 C14.0625,16.2239583 13.28125,16.6861979 12.421875,17.0117188 C11.5625,17.3372396 10.6510417,17.5 9.6875,17.5 Z" id="" fill="#632000" fill-rule="nonzero"></path>
                </g>
            </g>
        </g>
    </g>
</svg>