<?xml version="1.0" encoding="UTF-8"?>
<svg width="24px" height="21px" viewBox="0 0 24 21" version="1.1" xmlns="http://www.w3.org/2000/svg" xmlns:xlink="http://www.w3.org/1999/xlink">
    <title>7EBE541D-D063-4CBF-AB55-EF96691D4B0E</title>
    <g id="whitelabel-1.0" stroke="none" stroke-width="1" fill="none" fill-rule="evenodd">
        <g id="home" transform="translate(-60.000000, -1246.000000)">
            <g id="navbar" transform="translate(0.000000, 1235.000000)">
                <g id="icon-home-active" transform="translate(60.750000, 11.500000)">
                    <polygon id="Path-7" fill="#FC5000" points="11.25 1.5 19.25 7.5 19.25 19.5 3.25 19.5 3.25 7.5"></polygon>
                    <polygon id="Path-8" fill="#FFFFFF" points="13.25 8.5 15.25 9.5 15.25 11.5 11.25 15.5 7.25 11.5 7.25 9.5 8.25 8.5 10.25 8.5 11.25 9.5"></polygon>
                    <path d="M19.375,20 C19.5572917,20 19.7070312,19.9414062 19.8242188,19.8242188 C19.9414062,19.7070312 20,19.5572917 20,19.375 L20,9.140625 L21.2109375,10.1953125 C21.2630208,10.2473958 21.3346354,10.2734375 21.4257812,10.2734375 C21.5169271,10.2734375 21.5885417,10.234375 21.640625,10.15625 L22.421875,9.1796875 C22.4739583,9.12760417 22.5,9.05598958 22.5,8.96484375 C22.5,8.87369792 22.4609375,8.80208333 22.3828125,8.75 L20,6.71875 L20,2.8125 C20,2.734375 19.9674479,2.66276042 19.9023438,2.59765625 C19.8372396,2.53255208 19.765625,2.5 19.6875,2.5 L18.4375,2.5 C18.359375,2.5 18.2877604,2.53255208 18.2226562,2.59765625 C18.1575521,2.66276042 18.125,2.734375 18.125,2.8125 L18.125,5.15625 L12.2265625,0.3515625 C11.9401042,0.1171875 11.6145833,0 11.25,0 C10.8854167,0 10.546875,0.1171875 10.234375,0.3515625 L0.1171875,8.75 C0.0390625,8.80208333 0,8.87369792 0,8.96484375 C0,9.05598958 0.0260416667,9.140625 0.078125,9.21875 L0.859375,10.15625 C0.911458333,10.234375 0.983072917,10.2799479 1.07421875,10.2929688 C1.16536458,10.3059896 1.23697917,10.2734375 1.2890625,10.1953125 L2.5,9.140625 L2.5,19.375 C2.5,19.5572917 2.55859375,19.7070312 2.67578125,19.8242188 C2.79296875,19.9414062 2.94270833,20 3.125,20 L19.375,20 Z M18.125,18.125 L4.375,18.125 L4.375,7.578125 L11.0546875,2.109375 C11.1848958,2.00520833 11.3151042,2.00520833 11.4453125,2.109375 L18.125,7.578125 L18.125,18.125 Z M11.2890625,16.25 C11.5755208,16.2239583 11.8098958,16.1197917 11.9921875,15.9375 L15.390625,12.4609375 C15.7552083,12.0963542 16.0091146,11.6536458 16.1523437,11.1328125 C16.2955729,10.6119792 16.2890625,10.078125 16.1328125,9.53125 C15.9765625,8.984375 15.6510417,8.50911458 15.15625,8.10546875 C14.6614583,7.70182292 14.0885417,7.5 13.4375,7.5 C13.0208333,7.5 12.6171875,7.58463542 12.2265625,7.75390625 C11.8359375,7.92317708 11.5104167,8.13802083 11.25,8.3984375 C10.9635417,8.13802083 10.625,7.92317708 10.234375,7.75390625 C9.84375,7.58463542 9.44010417,7.5 9.0234375,7.5 C8.37239583,7.5 7.79947917,7.70182292 7.3046875,8.10546875 C6.80989583,8.50911458 6.49088542,8.984375 6.34765625,9.53125 C6.20442708,10.078125 6.19791667,10.6119792 6.328125,11.1328125 C6.45833333,11.6536458 6.70572917,12.0963542 7.0703125,12.4609375 L10.5078125,15.9375 C10.7421875,16.171875 11.0026042,16.2760417 11.2890625,16.25 Z M11.25,14.0234375 L8.3984375,11.1328125 C8.26822917,10.9765625 8.17708333,10.7682292 8.125,10.5078125 C8.07291667,10.1432292 8.19010417,9.83072917 8.4765625,9.5703125 C8.7109375,9.36197917 8.99739583,9.30989583 9.3359375,9.4140625 C9.5703125,9.46614583 9.765625,9.5703125 9.921875,9.7265625 L11.25,11.09375 L12.578125,9.7265625 C12.7083333,9.5703125 12.9036458,9.46614583 13.1640625,9.4140625 C13.4765625,9.30989583 13.75,9.36197917 13.984375,9.5703125 C14.296875,9.83072917 14.4140625,10.1432292 14.3359375,10.5078125 C14.3098958,10.7682292 14.21875,10.9765625 14.0625,11.1328125 L11.25,14.0234375 Z" id="" fill="#632000" fill-rule="nonzero"></path>
                </g>
            </g>
        </g>
    </g>
</svg>