<?xml version="1.0" encoding="UTF-8"?>
<svg width="18px" height="19px" viewBox="0 0 18 19" version="1.1" xmlns="http://www.w3.org/2000/svg" xmlns:xlink="http://www.w3.org/1999/xlink">
    <title>92CB2D62-4CEC-464C-852B-2C7ECE5DFC37</title>
    <g id="whitelabel-1.0" stroke="none" stroke-width="1" fill="none" fill-rule="evenodd">
        <g id="home" transform="translate(-310.000000, -1183.000000)" fill="#FFFFFF" fill-rule="nonzero">
            <g id="chat-WhatsApp" transform="translate(294.000000, 1168.000000)">
                <g id="icon-wa" transform="translate(16.250000, 15.750000)">
                    <path d="M0,17.5 L4.609375,16.2890625 C5.88541667,16.9921875 7.265625,17.34375 8.75,17.34375 C10.3125,17.34375 11.7643229,16.953125 13.1054688,16.171875 C14.4466146,15.390625 15.5143229,14.3359375 16.3085938,13.0078125 C17.1028646,11.6796875 17.5,10.234375 17.5,8.671875 C17.5,7.52604167 17.2721354,6.42578125 16.8164062,5.37109375 C16.3606771,4.31640625 15.7161458,3.37239583 14.8828125,2.5390625 C14.0494792,1.73177083 13.1054688,1.10677083 12.0507812,0.6640625 C10.9960938,0.221354167 9.89583333,0 8.75,0 C7.1875,0 5.7421875,0.390625 4.4140625,1.171875 C3.0859375,1.953125 2.03125,3.0078125 1.25,4.3359375 C0.46875,5.6640625 0.078125,7.109375 0.078125,8.671875 C0.078125,10.234375 0.46875,11.6796875 1.25,13.0078125 L0,17.5 Z M8.75,15.8984375 C7.421875,15.8984375 6.19791667,15.5598958 5.078125,14.8828125 L4.8046875,14.7265625 L2.0703125,15.4296875 L2.8125,12.7734375 L2.65625,12.5 C1.90104167,11.328125 1.5234375,10.0520833 1.5234375,8.671875 C1.5234375,7.36979167 1.84895833,6.16536458 2.5,5.05859375 C3.15104167,3.95182292 4.02994792,3.07291667 5.13671875,2.421875 C6.24348958,1.77083333 7.44791667,1.4453125 8.75,1.4453125 C9.71354167,1.4453125 10.6315104,1.62760417 11.5039062,1.9921875 C12.3763021,2.35677083 13.1575521,2.88411458 13.8476562,3.57421875 C14.5377604,4.26432292 15.078125,5.05208333 15.46875,5.9375 C15.859375,6.82291667 16.0546875,7.734375 16.0546875,8.671875 C16.0546875,9.97395833 15.7226562,11.1783854 15.0585938,12.2851562 C14.3945312,13.3919271 13.5026042,14.2708333 12.3828125,14.921875 C11.2630208,15.5729167 10.0520833,15.8984375 8.75,15.8984375 Z M11.5234375,12.8125 C11.7578125,12.7864583 12.0377604,12.6627604 12.3632812,12.4414062 C12.6888021,12.2200521 12.8971354,11.9986979 12.9882812,11.7773438 C13.0794271,11.5559896 13.1315104,11.3411458 13.1445312,11.1328125 C13.1575521,10.9244792 13.1510417,10.7942708 13.125,10.7421875 C13.0989583,10.6901042 12.9947917,10.625 12.8125,10.546875 L12.6953125,10.46875 C11.9140625,10.078125 11.4192708,9.84375 11.2109375,9.765625 C11.1067708,9.73958333 11.015625,9.7265625 10.9375,9.7265625 C10.859375,9.7265625 10.7942708,9.77864583 10.7421875,9.8828125 C10.6119792,10.0651042 10.3776042,10.3515625 10.0390625,10.7421875 C9.93489583,10.8723958 9.77864583,10.8854167 9.5703125,10.78125 C8.84114583,10.4166667 8.29427083,10.0911458 7.9296875,9.8046875 C7.43489583,9.4140625 7.00520833,8.88020833 6.640625,8.203125 C6.5625,8.125 6.53645833,8.05338542 6.5625,7.98828125 C6.58854167,7.92317708 6.65364583,7.83854167 6.7578125,7.734375 C6.96614583,7.52604167 7.13541667,7.29166667 7.265625,7.03125 C7.31770833,6.92708333 7.3046875,6.796875 7.2265625,6.640625 L6.5625,5.0390625 C6.51041667,4.8828125 6.45182292,4.78515625 6.38671875,4.74609375 C6.32161458,4.70703125 6.23697917,4.6875 6.1328125,4.6875 L5.6640625,4.6875 C5.45572917,4.6875 5.26041667,4.77864583 5.078125,4.9609375 L5.0390625,5 C4.5703125,5.49479167 4.3359375,6.08072917 4.3359375,6.7578125 C4.3359375,7.43489583 4.62239583,8.17708333 5.1953125,8.984375 L5.2734375,9.0625 C6.3671875,10.625 7.578125,11.6927083 8.90625,12.265625 C9.55729167,12.5520833 10.078125,12.734375 10.46875,12.8125 C10.8072917,12.8645833 11.1588542,12.8645833 11.5234375,12.8125 Z" id=""></path>
                </g>
            </g>
        </g>
    </g>
</svg>