<svg xmlns="http://www.w3.org/2000/svg" width="54" height="54" xmlns:v="https://vecta.io/nano"><path d="M47.125 52.75a5.42 5.42 0 0 0 3.984-1.641 5.42 5.42 0 0 0 1.641-3.984V5.875a5.42 5.42 0 0 0-1.641-3.984A5.42 5.42 0 0 0 47.125.25H5.875a5.42 5.42 0 0 0-3.984 1.641A5.42 5.42 0 0 0 .25 5.875v41.25a5.42 5.42 0 0 0 1.641 3.984 5.42 5.42 0 0 0 3.984 1.641h41.25zM7.75 45.25l2.695-9.61c-1.72-2.89-2.578-5.996-2.578-9.316a17.92 17.92 0 0 1 2.52-9.258 18.89 18.89 0 0 1 6.797-6.797C20.035 8.6 23.14 7.75 26.5 7.75c2.5 0 4.883.47 7.148 1.406s4.277 2.285 6.035 4.043 3.125 3.77 4.102 6.035a17.87 17.87 0 0 1 1.465 7.148c0 3.36-.84 6.445-2.52 9.258s-3.965 5.06-6.855 6.738a18.34 18.34 0 0 1-9.375 2.52c-3.203 0-6.172-.742-8.906-2.227L7.75 45.25zm18.75-3.516c2.813 0 5.4-.684 7.793-2.05s4.277-3.242 5.684-5.625 2.11-4.94 2.11-7.676a14.88 14.88 0 0 0-1.23-5.918c-.82-1.914-1.973-3.594-3.457-5.04s-3.164-2.56-5.04-3.34-3.828-1.172-5.86-1.172c-2.812 0-5.39.684-7.734 2.05a15.53 15.53 0 0 0-5.625 5.625c-1.406 2.383-2.11 4.98-2.11 7.793 0 2.97.78 5.703 2.344 8.203l.352.586-1.523 5.625 5.86-1.523.586.352a13.98 13.98 0 0 0 7.852 2.109zm3.633-6.562c-.78-.156-1.875-.547-3.28-1.172-2.89-1.25-5.508-3.555-7.852-6.914v-.117c-1.328-1.64-1.992-3.203-1.992-4.687s.547-2.773 1.64-3.867v-.117c.39-.39.82-.586 1.29-.586h.938c.47 0 .78.273.938.82l1.523 3.398c.156.313.156.586 0 .82-.234.547-.586 1.055-1.055 1.523-.234.234-.37.4-.4.527s-.02.293.06.527c.86 1.406 1.797 2.54 2.813 3.398.78.625 1.953 1.328 3.516 2.11.47.234.82.195 1.055-.117.703-.78 1.172-1.367 1.406-1.758s.566-.508.996-.352 1.504.703 3.223 1.64l.234.117c.39.156.625.293.703.4s.098.39.06.82-.137.88-.293 1.348c-.234.547-.703 1.035-1.406 1.465s-1.29.684-1.758.762a5.92 5.92 0 0 1-2.344 0z" fill="#00dd39"/></svg>