<svg xmlns="http://www.w3.org/2000/svg" width="54" height="54" xmlns:v="https://vecta.io/nano"><path d="M28.96 52.75V32.008h-7.148v-7.97h7.148v-5.86c0-3.28.918-5.84 2.754-7.676s4.316-2.754 7.44-2.754c2.422 0 4.453.117 6.094.352h0v7.03h-4.22c-1.484 0-2.54.352-3.164 1.055-.47.625-.703 1.563-.703 2.813h0v5.04h8.086l-1.055 7.97h-7.03V52.75h9.96a5.42 5.42 0 0 0 3.984-1.641 5.42 5.42 0 0 0 1.641-3.984h0V5.875a5.42 5.42 0 0 0-1.641-3.984A5.42 5.42 0 0 0 47.125.25h0-41.25a5.42 5.42 0 0 0-3.984 1.641A5.42 5.42 0 0 0 .25 5.875h0v41.25a5.42 5.42 0 0 0 1.641 3.984 5.42 5.42 0 0 0 3.984 1.641H28.96z" fill="#345b9e"/></svg>