<svg xmlns="http://www.w3.org/2000/svg" width="100" height="100" xmlns:v="https://vecta.io/nano"><g fill="#fb4f00"><path d="M76.9 2.097c-1.193-.542-2.503-.743-3.75-1.024-20.814-4.717-43.236 6.714-56.615 22.6C1.878 41.056-10.83 81.5 14.3 95.6c7.17 4.014 15.765 4.948 23.988 4.125 13.836-1.385 25.936-7.195 37.44-15.395C92.398 72.478 120.2 21.627 76.9 2.097zm8.398 89.77c-.32 1.435-.35 2.98.25 4.325 1.25 2.8 5.04 3.844 7.9 2.72 2.87-1.114 4.83-3.864 5.84-6.764.64-1.827.96-3.824.45-5.7-2.56-9.293-13.25.1-14.45 5.4z" opacity=".2"/><path d="M20.157 34.402s4 66.187 54.27 34.062v12.314l-37.2 8.77s-15.1 0-16.1-25.1l-.97-30.057z" opacity=".3"/><path d="M6.038 41.367l14.08-4.014s-.1-14.34-10.1-14.2-5 17.212-3.98 18.215zm31.18 48.183s3.97-1.184 6.25-7.627c.7-1.957 1.33-4.396 1.8-7.437.2-1.305 1-1.264 2.3-1.596l40.58-10.568a2.92 2.92 0 0 1 3.66 2.89c-.08 3.372-3.04 10.257-7.3 13.288l-47.27 11.05z"/></g><g fill="#494949"><path d="M36.438 89.97c-4.98 0-10-4.165-12.15-8.55-3.13-6.443-3.28-12.786-3.43-19.5l-.06-2.52c-.2-7.206-.67-14.512-1.37-21.708-.3-3-.62-5.67-1.65-8.14-1.15-2.74-3.1-4.757-5.37-5.52-2.5-.853-5.47.12-6.6 2.158a.75.75 0 0 1-1.02.291.76.76 0 0 1-.3-1.024c1.48-2.7 5.17-3.944 8.4-2.85 2.67.903 4.95 3.22 6.27 6.363 1.12 2.66 1.46 5.46 1.76 8.57.7 7.226 1.17 14.572 1.38 21.808l.06 2.53c.16 6.834.3 12.726 3.28 18.878 2.14 4.406 7.55 8.5 12.18 7.577a.75.75 0 0 1 .88.592c.08.412-.18.803-.6.883a8.66 8.66 0 0 1-1.68.161zm5.53-.15c-.33 0-.64-.23-.73-.572-.1-.4.14-.813.54-.913l43-10.97c2.4-.803 6.1-6.895 6-12.836-.01-.642-.17-1.134-.4-1.194-.13-.03-.36.02-.55.06-14.44 3.08-27.36 6.172-43.44 11.24-.3.1-.64.2-.78.38-.16.2-.15.632-.13 1.044v.1a12.26 12.26 0 0 1-3.03 8.39c-.27.3-.75.34-1.06.06a.75.75 0 0 1-.06-1.064c1.77-2.007 2.73-4.677 2.65-7.346v-.1c-.02-.622-.04-1.385.45-2.027.42-.542 1.08-.753 1.5-.883 16.14-5.078 29.1-8.18 43.58-11.28.33-.07.8-.17 1.27-.03.93.26 1.46 1.194 1.48 2.62.1 6.403-3.8 13.217-7.1 14.3l-43 10.99a1.1 1.1 0 0 1-.18.02z"/><path d="M74.428 66.215a.74.74 0 0 1-.53-.221c-2.27-2.268-3.35-7.687-2.97-14.873.96-17.884-2.68-30.017-10.8-36.08-7.1.642-37.06 5.038-50.97 8.882-.4.1-.8-.13-.92-.522-.1-.4.12-.813.52-.923 14.18-3.914 44.93-8.4 51.52-8.952.18-.01.36.03.5.14 8.72 6.323 12.63 18.958 11.64 37.544-.36 6.654.6 11.792 2.53 13.73a.76.76 0 0 1 0 1.064.78.78 0 0 1-.52.21zM5.558 42.12c-.3 0-.37-.14-.5-.4-2.13-3.954-2.66-8.7-1.47-13.006a.75.75 0 0 1 .92-.522c.4.1.63.522.52.923a16.15 16.15 0 0 0 1.08 11.37l1.33-.36c3.18-.883 9.1-2.5 12.62-3 .42-.06.8.23.84.642a.74.74 0 0 1-.64.843c-3.43.472-9.5 2.148-12.42 2.95-1.3.37-1.93.542-2.27.542z"/></g><path d="M60.068 21.526c1.78 1.836 2.63 4.365 3.28 6.834.16.612.3 1.234.24 1.857s-.4 1.254-1 1.505c-.96.4-2-.36-2.63-1.204-.87-1.194-1.4-2.6-2.07-3.924s-1.6-2.6-2.94-3.23c-.6-.28-1.3-.4-1.9-.692-.94-.42-1.76-1.385-1.18-2.44.44-.783 1.65-.913 2.43-.953 2.42-.13 3.98.4 5.76 2.248zm2.53 13.57c-.2.432-.25.913-.23 1.385.03.642.2 1.325.63 1.796s1.22.682 1.76.32c.4-.25.58-.723.67-1.174.13-.682.07-1.405-.26-2.007-.58-1.034-1.96-1.616-2.57-.32z" fill="#fff"/><path d="M38.298 55.206c-2.48 0-4.7-1.756-5.18-4.285-.08-.4.2-.803.6-.883a.75.75 0 0 1 .88.592 3.78 3.78 0 0 0 4.42 2.99 3.73 3.73 0 0 0 3-4.405.76.76 0 0 1 .6-.883.75.75 0 0 1 .88.592c.26 1.375-.02 2.78-.8 3.944a5.24 5.24 0 0 1-3.38 2.228 4.16 4.16 0 0 1-.99.11zm19.1-3.01c-2.48 0-4.7-1.756-5.18-4.285a.76.76 0 0 1 .6-.883.75.75 0 0 1 .88.592 3.78 3.78 0 0 0 4.42 2.99 3.73 3.73 0 0 0 3-4.405c-.08-.4.2-.803.6-.883s.8.2.88.592c.26 1.375-.02 2.78-.8 3.944a5.24 5.24 0 0 1-3.38 2.228c-.33.08-.67.1-1 .1z" fill="#494949"/><path d="M76.978 22.117c-.26 0-.52-.1-.72-.3a1.01 1.01 0 0 1-.21-1.084l2.23-5.72-2.67.883c-.52.2-1.1-.1-1.28-.612-.18-.522.1-1.094.6-1.284l4.08-1.295c.16-.04.57-.16 1 .06.52.25.9.903.57 1.796l-1.78 4.687 1.76-.933a1.01 1.01 0 0 1 1.37.371c.28.482.1 1.094-.37 1.375a29.82 29.82 0 0 1-4.24 2.017 1.87 1.87 0 0 1-.35.04zm9.18 12.435c-.25 0-.5-.1-.68-.27a1.02 1.02 0 0 1-.3-.953c.32-1.425.83-2.78 1.33-4.094l.9-2.398-3.6 1.234c-.52.17-1.1-.13-1.25-.652-.17-.532.13-1.094.65-1.254l5.56-2.007a1 1 0 0 1 1.08.211c.28.28.38.703.23 1.074l-1.72 4.506-.76 2.097 2.72-.833c.53-.16 1.1.14 1.25.662a1.01 1.01 0 0 1-.66 1.254l-4.47 1.375a.79.79 0 0 1-.3.05zm4.7-16.118a1 1 0 0 1-.81-.411 1.02 1.02 0 0 1-.04-1.124l2.24-3.442-1.97.2c-.54.04-1.03-.37-1.07-.933a1 1 0 0 1 .92-1.074c1.36-.1 2.73-.27 4.07-.512a.99.99 0 0 1 1.02.452c.22.352.2.783-.02 1.114l-2.12 3.14 1.84-.472c.54-.13 1.08.2 1.2.733a1 1 0 0 1-.72 1.214l-4.3 1.094a1.13 1.13 0 0 1-.25.03z" opacity=".7" fill="#fb4f00"/></svg>