<?xml version="1.0" encoding="UTF-8"?>
<svg width="34px" height="22px" viewBox="0 0 34 22" version="1.1" xmlns="http://www.w3.org/2000/svg" xmlns:xlink="http://www.w3.org/1999/xlink">
    <title>4E81B9CC-B33F-4DEC-B483-80330EFC9693</title>
    <g id="whitelabel-1.0" stroke="none" stroke-width="1" fill="none" fill-rule="evenodd">
        <g id="home" transform="translate(-29.000000, -331.000000)">
            <g id="kategori" transform="translate(16.000000, 271.000000)">
                <g id="category-1" transform="translate(0.000000, 42.000000)">
                    <g id="icon-zakat" transform="translate(13.000000, 24.000000)">
                        <polygon id="Path-6" fill="#FC5000" points="7 1 26 1 26 15 8 15 7 14"></polygon>
                        <polygon id="Path-2" fill="#FFFFFF" points="14 4 17 6 20 4 21 6 21 8 17 12 13 8 12 6"></polygon>
                        <path d="M26,15.5 C26.40625,15.5 26.7578125,15.3515625 27.0546875,15.0546875 C27.3515625,14.7578125 27.5,14.40625 27.5,14 L27.5,1.25 C27.5,0.75 27.375,0.28125 27.125,-0.15625 L24.828125,-4.46875 C24.734375,-4.78125 24.5546875,-5.03125 24.2890625,-5.21875 C24.0234375,-5.40625 23.734375,-5.5 23.421875,-5.5 L10.578125,-5.5 C10.265625,-5.5 9.9765625,-5.40625 9.7109375,-5.21875 C9.4453125,-5.03125 9.265625,-4.78125 9.171875,-4.46875 L6.875,-0.15625 C6.625,0.28125 6.5,0.75 6.5,1.25 L6.5,14 C6.5,14.40625 6.6484375,14.7578125 6.9453125,15.0546875 C7.2421875,15.3515625 7.59375,15.5 8,15.5 L26,15.5 Z M25.8125,0.5 L17.75,0.5 L17.75,-4 L23.421875,-4 L25.8125,0.5 Z M16.25,0.5 L8.1875,0.5 L10.578125,-4 L16.25,-4 L16.25,0.5 Z M26,14 L8,14 L8,2 L26,2 L26,14 Z M17,12.5 C17.1875,12.5 17.34375,12.4375 17.46875,12.3125 L21.453125,8.28125 C22.015625,7.71875 22.28125,7.015625 22.25,6.171875 C22.21875,5.328125 21.875,4.640625 21.21875,4.109375 C20.75,3.703125 20.21875,3.5 19.625,3.5 C18.75,3.46875 17.875,3.90625 17,4.8125 C16.125,3.90625 15.25,3.46875 14.375,3.5 C13.78125,3.5 13.25,3.703125 12.78125,4.109375 C12.125,4.640625 11.78125,5.328125 11.75,6.171875 C11.71875,7.015625 12,7.71875 12.59375,8.28125 L16.53125,12.3125 C16.65625,12.4375 16.8125,12.5 17,12.5 Z M17,10.625 L13.625,7.25 C13.375,7 13.25,6.671875 13.25,6.265625 C13.25,5.859375 13.40625,5.53125 13.71875,5.28125 C14.03125,5.03125 14.375,4.953125 14.75,5.046875 C15.0625,5.109375 15.328125,5.25 15.546875,5.46875 L17,6.921875 L18.5,5.421875 C18.6875,5.234375 18.9375,5.109375 19.25,5.046875 C19.65625,4.953125 20.0078125,5.03125 20.3046875,5.28125 C20.6015625,5.53125 20.75,5.8515625 20.75,6.2421875 C20.75,6.6328125 20.625,6.96875 20.375,7.25 L17,10.625 Z" id="ï’" fill="#4A4A4A" fill-rule="nonzero"></path>
                    </g>
                </g>
            </g>
        </g>
    </g>
</svg>