<?xml version="1.0" encoding="UTF-8"?>
<svg width="34px" height="23px" viewBox="0 0 34 23" version="1.1" xmlns="http://www.w3.org/2000/svg" xmlns:xlink="http://www.w3.org/1999/xlink">
    <title>74381818-9E9C-42E6-8022-72BE7E7B1CC7</title>
    <g id="whitelabel-1.0" stroke="none" stroke-width="1" fill="none" fill-rule="evenodd">
        <g id="home" transform="translate(-96.000000, -328.000000)">
            <g id="kategori" transform="translate(16.000000, 271.000000)">
                <g id="category-2" transform="translate(67.000000, 42.000000)">
                    <g id="icon-medical" transform="translate(13.000000, 21.000000)">
                        <polygon id="Path-3" fill="#FC5000" points="6 1 7 0 27 0 28 1 28 15 27 16 7 16 6 15"></polygon>
                        <path d="M26.75,17 C27.375,17 27.90625,16.78125 28.34375,16.34375 C28.78125,15.90625 29,15.375 29,14.75 L29,1.25 C29,0.625 28.78125,0.09375 28.34375,-0.34375 C27.90625,-0.78125 27.375,-1 26.75,-1 L21.5,-1 L21.5,-4.375 C21.5,-4.6875 21.390625,-4.953125 21.171875,-5.171875 C20.953125,-5.390625 20.6875,-5.5 20.375,-5.5 L13.625,-5.5 C13.3125,-5.5 13.046875,-5.390625 12.828125,-5.171875 C12.609375,-4.953125 12.5,-4.6875 12.5,-4.375 L12.5,-1 L7.25,-1 C6.625,-1 6.09375,-0.78125 5.65625,-0.34375 C5.21875,0.09375 5,0.625 5,1.25 L5,14.75 C5,15.375 5.21875,15.90625 5.65625,16.34375 C6.09375,16.78125 6.625,17 7.25,17 L26.75,17 Z M20,-1 L14,-1 L14,-4 L20,-4 L20,-1 Z M26.75,15.5 L7.25,15.5 C7.03125,15.5 6.8515625,15.4296875 6.7109375,15.2890625 C6.5703125,15.1484375 6.5,14.96875 6.5,14.75 L6.5,1.25 C6.5,1.03125 6.5703125,0.8515625 6.7109375,0.7109375 C6.8515625,0.5703125 7.03125,0.5 7.25,0.5 L26.75,0.5 C26.96875,0.5 27.1484375,0.5703125 27.2890625,0.7109375 C27.4296875,0.8515625 27.5,1.03125 27.5,1.25 L27.5,14.75 C27.5,14.96875 27.4296875,15.1484375 27.2890625,15.2890625 C27.1484375,15.4296875 26.96875,15.5 26.75,15.5 Z M18.125,12.5 C18.21875,12.5 18.3046875,12.4609375 18.3828125,12.3828125 C18.4609375,12.3046875 18.5,12.21875 18.5,12.125 L18.5,9.5 L21.125,9.5 C21.21875,9.5 21.3046875,9.4609375 21.3828125,9.3828125 C21.4609375,9.3046875 21.5,9.21875 21.5,9.125 L21.5,6.875 C21.5,6.78125 21.4609375,6.6953125 21.3828125,6.6171875 C21.3046875,6.5390625 21.21875,6.5 21.125,6.5 L18.5,6.5 L18.5,3.875 C18.5,3.78125 18.4609375,3.6953125 18.3828125,3.6171875 C18.3046875,3.5390625 18.21875,3.5 18.125,3.5 L15.875,3.5 C15.78125,3.5 15.6953125,3.5390625 15.6171875,3.6171875 C15.5390625,3.6953125 15.5,3.78125 15.5,3.875 L15.5,6.5 L12.875,6.5 C12.78125,6.5 12.6953125,6.5390625 12.6171875,6.6171875 C12.5390625,6.6953125 12.5,6.78125 12.5,6.875 L12.5,9.125 C12.5,9.21875 12.5390625,9.3046875 12.6171875,9.3828125 C12.6953125,9.4609375 12.78125,9.5 12.875,9.5 L15.5,9.5 L15.5,12.125 C15.5,12.21875 15.5390625,12.3046875 15.6171875,12.3828125 C15.6953125,12.4609375 15.78125,12.5 15.875,12.5 L18.125,12.5 Z" id="" fill="#4A4A4A" fill-rule="nonzero"></path>
                        <polygon id="Path-3" fill="#FC5000" points="10 3.625 10.6363636 3 23.3636364 3 24 3.625 24 12.375 23.3636364 13 10.6363636 13 10 12.375"></polygon>
                        <path d="M18.1110669,2.50010548 C18.3349449,2.49672384 18.5471744,2.57444264 18.7363659,2.76363411 C18.9216283,2.9488965 19,3.15625 19,3.375 L19,3.375 L19,5.5 L21.125,5.5 C21.34375,5.5 21.5511035,5.57837172 21.7363659,5.76363411 C21.9216283,5.9488965 22,6.15625 22,6.375 L22,6.375 L22,8.625 C22,8.84375 21.9216283,9.0511035 21.7363659,9.23636589 C21.5511035,9.42162828 21.34375,9.5 21.125,9.5 L21.125,9.5 L19,9.5 L19,11.625 C19,11.84375 18.9216283,12.0511035 18.7363659,12.2363659 C18.5511035,12.4216283 18.34375,12.5 18.125,12.5 L18.125,12.5 L15.875,12.5 C15.65625,12.5 15.4488965,12.4216283 15.2636341,12.2363659 C15.0783717,12.0511035 15,11.84375 15,11.625 L15,11.625 L15,9.5 L12.875,9.5 C12.65625,9.5 12.4488965,9.42162828 12.2636341,9.23636589 C12.0783717,9.0511035 12,8.84375 12,8.625 L12,8.625 L12,6.375 C12,6.15625 12.0783717,5.9488965 12.2636341,5.76363411 C12.4488965,5.57837172 12.65625,5.5 12.875,5.5 L12.875,5.5 L15,5.5 L15,3.375 C15,3.10008551 15.1237823,2.84317094 15.4279555,2.62548452 L15.4279555,2.62548452 Z" id="Path" stroke="#4A4A4A" fill="#FFFFFF" fill-rule="nonzero"></path>
                    </g>
                </g>
            </g>
        </g>
    </g>
</svg>