<?xml version="1.0" encoding="UTF-8"?>
<svg width="27px" height="26px" viewBox="0 0 27 26" version="1.1" xmlns="http://www.w3.org/2000/svg" xmlns:xlink="http://www.w3.org/1999/xlink">
    <title>1051FAA4-C5E4-44E1-B0FF-98E6397A1459</title>
    <g id="whitelabel-1.0" stroke="none" stroke-width="1" fill="none" fill-rule="evenodd">
        <g id="home" transform="translate(-234.000000, -328.000000)">
            <g id="kategori" transform="translate(16.000000, 271.000000)">
                <g id="category-4" transform="translate(201.000000, 42.000000)">
                    <g id="ic_bencana-alam" transform="translate(17.000000, 15.000000)">
                        <path d="M12.19274,1.132922 C12.71606,0.856856 13.35425,0.858305 13.88058,1.136744 L24.33662,6.6682 C25.17795,7.11333 25.4856,8.12 25.02381,8.91667 C24.56202,9.71334 23.50565,9.99838 22.66432,9.55325 L21.18711,8.77177 L21.24346,19.24825 L15.78122,19.23586 L16.975,17.10065 L12.775,13.43566 L14.875,9.23566 L10.325,13.43566 L12.775,17.10065 L11.28981,19.22571 L5.02467,19.2115 L4.96825,8.73502 L3.499398,9.50992 C2.662835,9.9512 1.60335,9.66133 1.132978,8.86256 C0.662599,8.06379 0.959455,7.05852 1.796018,6.61724 L12.19274,1.132922 Z" id="Path" fill="#FB4F00"></path>
                        <path d="M13.58959,1.755397 C13.30098,1.603952 12.95189,1.602286 12.66279,1.753262 L2.254329,7.18942 C1.786603,7.43372 1.610623,8.00282 1.88167,8.45866 C2.147054,8.90491 2.730763,9.05681 3.187702,8.81811 L4.65822,8.05007 C4.89685,7.92547 5.19085,7.9282 5.43004,8.05728 C5.66916,8.18629 5.81728,8.42219 5.81889,8.67636 L5.87797,18.35862 L5.78305,19.83226 L5.11581,19.78291 C4.91029,19.78228 4.71247,19.70626 4.56603,19.57158 C4.41966,19.43683 4.33671,19.25462 4.33552,19.06506 L4.27959,9.89576 L3.96214,10.06152 C2.744091,10.69768 1.205309,10.27285 0.527478,9.1329 C-0.14469,8.00254 0.272573,6.57657 1.479863,5.94601 L11.88838,0.50988 C12.64718,0.113575 13.57629,0.115633 14.34223,0.517587 L24.81745,6.01454 C26.0379,6.65497 26.46917,8.08647 25.81271,9.20969 C25.15177,10.34054 23.62157,10.75984 22.39195,10.11458 L22.06918,9.94525 L22.12525,19.12148 C22.12763,19.51446 21.78484,19.83142 21.35868,19.83016 L20.53366,19.70073 L20.57412,18.40139 L20.51497,8.71451 C20.51343,8.4609 20.65798,8.22724 20.89465,8.10082 C21.13132,7.9744 21.42448,7.97412 21.66472,8.10019 L23.14466,8.87677 C23.60078,9.11617 24.18612,8.97106 24.44911,8.52117 C24.71651,8.06358 24.5301,7.49651 24.06481,7.25235 L13.58959,1.755397 Z" id="Path" fill="#494949" fill-rule="nonzero"></path>
                        <path d="M12.64571,17.28559 L1.399986,17.28559 L1.399986,22.88559 C1.399986,24.04542 2.340191,24.98559 3.499993,24.98559 L11.94557,24.98559 L10.15,20.85657 L12.64571,17.28559 Z M17.11948,24.98559 L23.1,24.98559 C24.25976,24.98559 25.2,24.04542 25.2,22.88559 L25.2,17.28559 L16.87161,17.28559 L14.875,20.85657 L17.11948,24.98559 Z" id="Shape" fill="#FFFFFF"></path>
                        <path d="M0.699986,17.28559 C0.699986,16.89905 1.01339,16.58559 1.399986,16.58559 L12.74105,16.58559 C12.96393,16.58559 13.17351,16.69178 13.30539,16.87147 L13.33934,16.91774 C13.51665,17.15938 13.5205,17.48712 13.34872,17.73282 L10.94807,21.16779 L12.48695,24.70643 C12.5811,24.92287 12.55982,25.17207 12.43046,25.3694 C12.3011,25.56673 12.08102,25.68559 11.84505,25.68559 L3.499986,25.68559 C1.953588,25.68559 0.699986,24.43203 0.699986,22.88559 L0.699986,17.28559 Z M2.099986,17.98559 L2.099986,22.88559 C2.099986,23.65881 2.726787,24.28559 3.499986,24.28559 L10.77734,24.28559 L9.50803,21.36694 C9.41101,21.14378 9.43684,20.88625 9.57621,20.68675 L11.46404,17.98559 L2.099986,17.98559 Z M16.45,16.93566 C16.55136,16.66035 16.62738,16.58559 16.92068,16.58559 L25.2,16.58559 C25.58661,16.58559 25.9,16.89905 25.9,17.28559 L25.9,22.88559 C25.9,24.43203 24.64637,25.68559 23.1,25.68559 L16.99383,25.68559 C16.73728,25.68559 16.50131,25.54531 16.37881,25.31991 L14.25998,21.4221 C14.14525,21.21098 14.14679,20.95583 14.26397,20.74618 L16.22187,17.24443 C16.22586,17.17702 16.42585,17.00132 16.45,16.93566 Z M17.41145,17.98559 L15.67433,21.09254 L17.41005,24.28559 L23.1,24.28559 C23.87315,24.28559 24.5,23.65881 24.5,22.88559 L24.5,17.98559 L17.41145,17.98559 Z" id="Shape" fill="#494949"></path>
                    </g>
                </g>
            </g>
        </g>
    </g>
</svg>