<?xml version="1.0" encoding="UTF-8"?>
<svg width="18px" height="18px" viewBox="0 0 18 18" version="1.1" xmlns="http://www.w3.org/2000/svg" xmlns:xlink="http://www.w3.org/1999/xlink">
    <title>0C6FECFB-93ED-4127-A3F6-269E5830DC52</title>
    <g id="whitelabel-1.0" stroke="none" stroke-width="1" fill="none" fill-rule="evenodd">
        <g id="home" transform="translate(-305.000000, -334.000000)">
            <g id="kategori" transform="translate(16.000000, 271.000000)">
                <g id="category-5" transform="translate(268.000000, 42.000000)">
                    <g id="Group-8" transform="translate(21.000000, 21.000000)">
                        <rect id="Rectangle" fill="#FC5000" x="1" y="1" width="6" height="6"></rect>
                        <rect id="Rectangle-Copy-2" fill="#FC5000" x="11" y="1" width="6" height="6"></rect>
                        <rect id="Rectangle-Copy-3" fill="#FC5000" x="11" y="11" width="6" height="6"></rect>
                        <rect id="Rectangle-Copy-4" fill="#FC5000" x="1" y="11" width="6" height="6"></rect>
                        <path d="M6.58536585,8.1 C6.95121951,8.1 7.26219512,7.96875 7.51829268,7.70625 C7.77439024,7.44375 7.90243902,7.125 7.90243902,6.75 L7.90243902,1.35 C7.90243902,0.975 7.77439024,0.65625 7.51829268,0.39375 C7.26219512,0.13125 6.95121951,0 6.58536585,0 L1.31707317,0 C0.951219512,0 0.640243902,0.13125 0.384146341,0.39375 C0.12804878,0.65625 0,0.975 0,1.35 L0,6.75 C0,7.125 0.12804878,7.44375 0.384146341,7.70625 C0.640243902,7.96875 0.951219512,8.1 1.31707317,8.1 L6.58536585,8.1 Z M16.6829268,8.1 C17.0487805,8.1 17.3597561,7.96875 17.6158537,7.70625 C17.8719512,7.44375 18,7.125 18,6.75 L18,1.35 C18,0.975 17.8719512,0.65625 17.6158537,0.39375 C17.3597561,0.13125 17.0487805,0 16.6829268,0 L11.4146341,0 C11.0487805,0 10.7378049,0.13125 10.4817073,0.39375 C10.2256098,0.65625 10.097561,0.975 10.097561,1.35 L10.097561,6.75 C10.097561,7.125 10.2256098,7.44375 10.4817073,7.70625 C10.7378049,7.96875 11.0487805,8.1 11.4146341,8.1 L16.6829268,8.1 Z M5.95121951,6.05 L1.95121951,6.05 L1.95121951,2.05 L5.95121951,2.05 L5.95121951,6.05 Z M16.0487805,6.05 L12.0487805,6.05 L12.0487805,2.05 L16.0487805,2.05 L16.0487805,6.05 Z M6.58536585,18 C6.95121951,18 7.26219512,17.86875 7.51829268,17.60625 C7.77439024,17.34375 7.90243902,17.025 7.90243902,16.65 L7.90243902,11.25 C7.90243902,10.875 7.77439024,10.55625 7.51829268,10.29375 C7.26219512,10.03125 6.95121951,9.9 6.58536585,9.9 L1.31707317,9.9 C0.951219512,9.9 0.640243902,10.03125 0.384146341,10.29375 C0.12804878,10.55625 0,10.875 0,11.25 L0,16.65 C0,17.025 0.12804878,17.34375 0.384146341,17.60625 C0.640243902,17.86875 0.951219512,18 1.31707317,18 L6.58536585,18 Z M16.6829268,18 C17.0487805,18 17.3597561,17.86875 17.6158537,17.60625 C17.8719512,17.34375 18,17.025 18,16.65 L18,11.25 C18,10.875 17.8719512,10.55625 17.6158537,10.29375 C17.3597561,10.03125 17.0487805,9.9 16.6829268,9.9 L11.4146341,9.9 C11.0487805,9.9 10.7378049,10.03125 10.4817073,10.29375 C10.2256098,10.55625 10.097561,10.875 10.097561,11.25 L10.097561,16.65 C10.097561,17.025 10.2256098,17.34375 10.4817073,17.60625 C10.7378049,17.86875 11.0487805,18 11.4146341,18 L16.6829268,18 Z M5.95121951,15.95 L1.95121951,15.95 L1.95121951,11.95 L5.95121951,11.95 L5.95121951,15.95 Z M16.0487805,15.95 L12.0487805,15.95 L12.0487805,11.95 L16.0487805,11.95 L16.0487805,15.95 Z" id="ï–" fill="#4A4A4A" fill-rule="nonzero"></path>
                    </g>
                </g>
            </g>
        </g>
    </g>
</svg>