<?xml version="1.0" encoding="UTF-8"?>
<svg width="34px" height="26px" viewBox="0 0 34 26" version="1.1" xmlns="http://www.w3.org/2000/svg" xmlns:xlink="http://www.w3.org/1999/xlink">
    <title>BEE0C0E9-A443-454B-89E2-93E20B05FEE4</title>
    <g id="whitelabel-1.0" stroke="none" stroke-width="1" fill="none" fill-rule="evenodd">
        <g id="home" transform="translate(-163.000000, -327.000000)">
            <g id="kategori" transform="translate(16.000000, 271.000000)">
                <g id="category-3" transform="translate(134.000000, 42.000000)">
                    <g id="icon-social" transform="translate(13.000000, 22.000000)">
                        <polygon id="Path-4" fill="#FC5000" points="3 11 9 7 9 4 10 2 13 1 13 5 14 7 16 7 18 6 18 3 24 3 25 4 25 6 24 7 23 8 23 10 21 11 20 13 16 13 14 13 8 16"></polygon>
                        <path d="M8.515625,16.953125 L13.578125,14 L18.3125,14 C19.125,14 19.84375,13.7421875 20.46875,13.2265625 C21.09375,12.7109375 21.484375,12.0625 21.640625,11.28125 C22.359375,11.125 22.953125,10.7578125 23.421875,10.1796875 C23.890625,9.6015625 24.125,8.9375 24.125,8.1875 L24.125,7.953125 C24.75,7.859375 25.25,7.53125 25.625,6.96875 L31.8125,3.359375 C31.90625,3.296875 31.96875,3.21875 32,3.125 C32.03125,3.03125 32.015625,2.9375 31.953125,2.84375 L31.578125,2.1875 C31.515625,2.09375 31.4375,2.03125 31.34375,2 C31.25,1.96875 31.15625,1.984375 31.0625,2.046875 L26,5 L26,4.25 C26,3.625 25.78125,3.09375 25.34375,2.65625 C24.90625,2.21875 24.375,2 23.75,2 L17,2 L17,4.90625 C17,5.28125 16.8828125,5.625 16.6484375,5.9375 C16.4140625,6.25 16.109375,6.4375 15.734375,6.5 C15.296875,6.5625 14.8984375,6.4453125 14.5390625,6.1484375 C14.1796875,5.8515625 14,5.46875 14,5 L14,0.59375 C14,0.25 14.078125,-0.0625 14.234375,-0.34375 C14.390625,-0.625 14.609375,-0.84375 14.890625,-1 L16.4375,-1.984375 C17,-2.328125 17.59375,-2.5 18.21875,-2.5 L23.09375,-2.5 L28.625,-5.640625 C28.71875,-5.703125 28.78125,-5.78125 28.8125,-5.875 C28.84375,-5.96875 28.828125,-6.0625 28.765625,-6.15625 L28.390625,-6.8125 C28.328125,-6.90625 28.25,-6.96875 28.15625,-7 C28.0625,-7.03125 27.96875,-7.015625 27.875,-6.953125 L22.671875,-4 L18.21875,-4 C17.3125,-4 16.453125,-3.75 15.640625,-3.25 L14.09375,-2.265625 C13.25,-1.765625 12.75,-1.015625 12.59375,-0.015625 L9.640625,1.71875 C9.140625,2.03125 8.7421875,2.4453125 8.4453125,2.9609375 C8.1484375,3.4765625 8,4.03125 8,4.625 L8,6.453125 L2.1875,9.734375 C2.09375,9.796875 2.03125,9.875 2,9.96875 C1.96875,10.0625 1.984375,10.15625 2.046875,10.25 L2.421875,10.90625 C2.484375,11 2.5625,11.0625 2.65625,11.09375 C2.75,11.125 2.84375,11.109375 2.9375,11.046875 L9.5,7.296875 L9.5,4.625 C9.5,4.3125 9.578125,4.0078125 9.734375,3.7109375 C9.890625,3.4140625 10.109375,3.1875 10.390625,3.03125 L12.5,1.765625 L12.5,4.859375 C12.5,5.671875 12.7578125,6.375 13.2734375,6.96875 C13.7890625,7.5625 14.4375,7.90625 15.21875,8 C16.09375,8.0625 16.859375,7.796875 17.515625,7.203125 C18.171875,6.609375 18.5,5.875 18.5,5 L18.5,3.5 L23.75,3.5 C23.96875,3.5 24.1484375,3.5703125 24.2890625,3.7109375 C24.4296875,3.8515625 24.5,4.03125 24.5,4.25 L24.5,5.75 C24.5,5.96875 24.4296875,6.1484375 24.2890625,6.2890625 C24.1484375,6.4296875 23.96875,6.5 23.75,6.5 L22.625,6.5 L22.625,8.1875 C22.625,8.65625 22.4609375,9.0546875 22.1328125,9.3828125 C21.8046875,9.7109375 21.40625,9.875 20.9375,9.875 L20.1875,9.875 L20.1875,10.625 C20.1875,11.125 20.0078125,11.5625 19.6484375,11.9375 C19.2890625,12.3125 18.84375,12.5 18.3125,12.5 L13.203125,12.5 L7.765625,15.640625 C7.671875,15.703125 7.609375,15.78125 7.578125,15.875 C7.546875,15.96875 7.5625,16.0625 7.625,16.15625 L8,16.8125 C8.0625,16.90625 8.140625,16.96875 8.234375,17 C8.328125,17.03125 8.421875,17.015625 8.515625,16.953125 Z" id="" fill="#4A4A4A" fill-rule="nonzero"></path>
                    </g>
                </g>
            </g>
        </g>
    </g>
</svg>